<svg width="330" height="42" viewBox="0 0 330 42" fill="none" xmlns="http://www.w3.org/2000/svg">
<path d="M21.6767 41.9992C18.7386 42.024 15.8209 41.5224 13.069 40.5195C10.5215 39.6017 8.19312 38.1872 6.22632 36.3626C4.25953 34.5381 2.69569 32.3419 1.63051 29.9084C0.522983 27.355 -0.031619 24.6065 0.00139161 21.8348C-0.0309236 19.0613 0.523635 16.311 1.63051 13.7554C2.69221 11.3401 4.24915 9.16141 6.2059 7.35277C8.20461 5.51274 10.5619 4.08172 13.1383 3.14433C15.8912 2.14558 18.8085 1.64599 21.746 1.67025C24.9822 1.62609 28.1939 2.22332 31.1857 3.42564C33.9462 4.5522 36.3803 6.32194 38.2741 8.57929L32.2602 13.9242C31.0132 12.4719 29.4635 11.2944 27.7137 10.4697C25.9848 9.68503 24.0982 9.28527 22.1909 9.29945C20.4301 9.28124 18.6823 9.59455 17.0436 10.2222C15.5212 10.8032 14.1386 11.6843 12.9824 12.8103C11.8262 13.9363 10.9215 15.2829 10.3249 16.7655C9.67965 18.3787 9.35993 20.098 9.38325 21.8291C9.35993 23.5603 9.67965 25.2795 10.3249 26.8928C10.9201 28.3775 11.8243 29.7262 12.9805 30.8542C14.1368 31.9822 15.5201 32.8651 17.0436 33.4473C18.6827 34.073 20.4305 34.3844 22.1909 34.3644C24.1011 34.382 25.9902 33.9741 27.7137 33.1717C29.4622 32.3326 31.0109 31.1462 32.2602 29.689L38.2625 35.0565C36.3653 37.3171 33.9328 39.0953 31.1741 40.2382C28.1659 41.4535 24.933 42.053 21.6767 41.9992Z" fill="#102551"/>
<path d="M55.9921 41.7751C53.6198 41.8219 51.2693 41.3267 49.129 40.3292C47.1462 39.3534 45.5292 37.7943 44.5074 35.8732C43.4097 33.8646 42.832 31.3441 42.832 28.3059V11.3652H51.7633V26.9612C51.7633 29.4893 52.3063 31.3366 53.3924 32.5031C54.4785 33.6733 56.0094 34.2585 58.014 34.2585C59.2864 34.2797 60.542 33.973 61.6535 33.3695C62.7578 32.7423 63.6464 31.8104 64.207 30.6914C64.881 29.3004 65.2039 27.7726 65.1486 26.2354V11.3652H74.0279V41.3307H65.5414V33.0319L67.0955 35.4794C66.1108 37.4747 64.5113 39.1209 62.5201 40.1885C60.5185 41.2506 58.2713 41.7967 55.9921 41.7751Z" fill="#102551"/>
<path d="M82.3008 41.3305V0H91.2205V41.3305H82.3008Z" fill="#102551"/>
<path d="M98.082 18.742V12.0299H119.417V18.742H98.082ZM114.327 41.8097C110.707 41.8097 107.886 40.9095 105.864 39.1091C103.842 37.3087 102.831 34.625 102.831 31.0579V4.73828H111.808V30.861C111.741 31.9331 112.101 32.9889 112.813 33.8091C113.16 34.167 113.582 34.4473 114.051 34.6309C114.52 34.8145 115.024 34.8969 115.529 34.8725C116.844 34.9139 118.134 34.5169 119.185 33.7473L121.531 39.8686C120.561 40.545 119.464 41.0286 118.302 41.2921C117.003 41.6138 115.667 41.7763 114.327 41.7759V41.8097Z" fill="#102551"/>
<path d="M139.608 41.7751C137.235 41.8219 134.885 41.3267 132.744 40.3292C130.759 39.3565 129.141 37.7966 128.123 35.8732C127.014 33.8646 126.465 31.3722 126.465 28.2946V11.3652H135.385V26.9612C135.385 29.4893 135.928 31.3366 137.014 32.5031C138.1 33.6696 139.64 34.2547 141.635 34.2585C142.906 34.2784 144.159 33.9718 145.269 33.3695C146.369 32.7426 147.253 31.8127 147.811 30.6971C148.487 29.3065 148.812 27.7787 148.758 26.2411V11.3652H157.62V41.3307H149.157V33.0319L150.699 35.4794C149.715 37.4747 148.115 39.1209 146.124 40.1885C144.126 41.2503 141.883 41.7965 139.608 41.7751Z" fill="#102551"/>
<path d="M165.918 41.3299V11.3645H174.439V19.8657L173.237 17.3621C174.091 15.3122 175.647 13.6128 177.64 12.5516C179.913 11.3954 182.453 10.8278 185.017 10.9031V18.9937C184.676 18.9205 184.341 18.8643 184.017 18.8249C183.705 18.79 183.39 18.7712 183.076 18.7686C180.557 18.7686 178.554 19.4569 177.068 20.8335C175.581 22.21 174.838 24.3255 174.838 27.1799V41.3299H165.918Z" fill="#102551"/>
<path d="M205.323 41.774C202.132 41.8436 198.972 41.1562 196.115 39.7711C193.571 38.5275 191.442 36.6053 189.976 34.2286C188.51 31.8519 187.768 29.1185 187.836 26.3468C187.789 23.5569 188.512 20.8057 189.928 18.3801C191.304 16.053 193.326 14.1516 195.762 12.8945C198.358 11.5525 201.259 10.8712 204.197 10.914C207.034 10.8754 209.835 11.5271 212.348 12.8101C214.743 14.0384 216.743 15.8883 218.125 18.155C219.576 20.6888 220.289 23.56 220.188 26.4594C220.188 26.7913 220.188 27.1739 220.13 27.5846C220.072 27.9953 220.055 28.406 220.014 28.7774H195.029V23.7137H215.329L211.863 25.2216C211.932 23.8139 211.615 22.4137 210.944 21.165C210.321 20.0412 209.392 19.1066 208.258 18.4644C207.037 17.7971 205.654 17.461 204.255 17.4911C202.842 17.4613 201.446 17.7972 200.211 18.4644C199.057 19.1036 198.115 20.0503 197.495 21.1932C196.811 22.4737 196.469 23.9019 196.502 25.3454V26.6788C196.465 28.203 196.865 29.7071 197.657 31.0222C198.405 32.2371 199.499 33.2143 200.806 33.8354C202.305 34.5229 203.95 34.8582 205.606 34.8143C207.062 34.8401 208.509 34.5937 209.87 34.0886C211.131 33.5832 212.28 32.8459 213.255 31.9168L218.004 36.9298C216.544 38.5191 214.719 39.7492 212.677 40.5194C210.331 41.3917 207.835 41.8176 205.323 41.774Z" fill="#102551"/>
<path d="M222.496 18.742V12.0299H243.813V18.742H222.496ZM238.735 41.8097C235.115 41.8097 232.294 40.9095 230.272 39.1091C228.25 37.3087 227.241 34.625 227.245 31.0579V4.73828H236.222V30.861C236.156 31.932 236.514 32.987 237.222 33.8091C237.568 34.167 237.991 34.4473 238.46 34.6309C238.928 34.8145 239.432 34.8969 239.937 34.8725C241.253 34.9107 242.544 34.5141 243.6 33.7473L245.945 39.8686C244.976 40.5493 243.879 41.0369 242.716 41.3033C241.409 41.6231 240.066 41.7819 238.718 41.7759L238.735 41.8097Z" fill="#102551"/>
<path d="M265.315 41.774C262.124 41.8436 258.964 41.1562 256.107 39.7711C253.56 38.5291 251.429 36.6076 249.961 34.2308C248.493 31.8539 247.75 29.1197 247.817 26.3468C247.768 23.5574 248.488 20.8062 249.902 18.3801C251.278 16.053 253.301 14.1516 255.737 12.8945C258.332 11.5525 261.233 10.8712 264.171 10.914C267.008 10.8749 269.81 11.5267 272.323 12.8101C274.71 14.0487 276.7 15.9063 278.071 18.1775C279.54 20.7062 280.271 23.5778 280.185 26.4819C280.185 26.8138 280.185 27.1964 280.127 27.6071C280.07 28.0178 280.052 28.4285 280.012 28.7999H255.021V23.7362H275.321L271.855 25.2441C271.924 23.8329 271.607 22.4292 270.936 21.1763C270.313 20.0524 269.384 19.1179 268.25 18.4757C267.029 17.8084 265.646 17.4722 264.246 17.5024C262.834 17.4726 261.438 17.8085 260.203 18.4757C259.05 19.1164 258.109 20.0627 257.487 21.2044C256.809 22.4865 256.473 23.9146 256.511 25.3566V26.69C256.474 28.2143 256.874 29.7184 257.666 31.0335C258.414 32.2483 259.508 33.2256 260.815 33.8466C262.315 34.5342 263.959 34.8695 265.616 34.8256C267.068 34.8463 268.511 34.5961 269.868 34.0886C271.135 33.5851 272.29 32.8477 273.27 31.9168L278.019 36.9298C276.563 38.5207 274.739 39.7511 272.698 40.5194C270.343 41.3952 267.836 41.8212 265.315 41.774Z" fill="#102551"/>
<path d="M301.007 41.7743C297.939 41.832 294.904 41.1538 292.168 39.7995C289.636 38.5353 287.519 36.6043 286.057 34.2261C284.596 31.848 283.849 29.1181 283.902 26.3471C283.843 23.541 284.609 20.7771 286.108 18.3803C287.591 16.0665 289.684 14.182 292.168 12.9228C294.897 11.547 297.935 10.8566 301.007 10.9143C303.966 10.8503 306.891 11.5326 309.499 12.8947C311.849 14.138 313.694 16.1219 314.733 18.521L307.87 22.1949C307.161 20.92 306.113 19.8534 304.837 19.1061C303.652 18.4546 302.311 18.1189 300.949 18.1328C299.538 18.1162 298.146 18.4513 296.906 19.1061C295.69 19.7606 294.689 20.7356 294.017 21.9192C293.256 23.2846 292.881 24.8224 292.931 26.3752C292.88 27.9425 293.255 29.495 294.017 30.8762C294.685 32.0702 295.686 33.0554 296.906 33.7175C298.147 34.3698 299.539 34.7046 300.949 34.6908C302.31 34.7018 303.651 34.3663 304.837 33.7175C306.125 32.9563 307.173 31.8668 307.87 30.5668L314.733 34.2463C313.669 36.6157 311.829 38.5745 309.499 39.8163C306.892 41.178 303.965 41.8529 301.007 41.7743Z" fill="#102551"/>
<path d="M324.449 41.7742C323.725 41.7856 323.005 41.6562 322.332 41.3934C321.66 41.1306 321.048 40.7398 320.532 40.2438C319.489 39.1944 318.906 37.7912 318.906 36.3308C318.906 34.8703 319.489 33.4671 320.532 32.4177C321.601 31.4512 323.005 30.9141 324.464 30.9141C325.922 30.9141 327.326 31.4512 328.395 32.4177C329.198 33.1755 329.749 34.1503 329.977 35.2162C330.205 36.282 330.1 37.3901 329.675 38.3973C329.251 39.4044 328.526 40.2645 327.594 40.8664C326.663 41.4684 325.567 41.7846 324.449 41.7742Z" fill="#538CFF"/>
</svg>
