<svg width="64" height="64" viewBox="0 0 64 64" fill="none" xmlns="http://www.w3.org/2000/svg">
<mask id="path-1-outside-1_3121_9" maskUnits="userSpaceOnUse" x="0" y="0" width="64" height="64" fill="black">
<rect fill="black" width="64" height="64"/>
<path d="M33.449 19.693L40.8738 27.1153V23.4782L39.6469 22.2517H40.8738V19.693H33.449Z"/>
<path d="M53.0791 22.6746C53.4599 21.8922 53.7349 21.0675 53.8618 20.2005C52.5715 19.8622 51.2388 19.693 49.885 19.693H41.7199V23.1187H41.741L44.3006 25.6774V22.2517H49.885C50.9638 22.2517 52.0426 22.3997 53.0791 22.6746Z"/>
<path d="M30.5087 44.3281L27.928 41.7694L23.0839 36.927V40.543L23.4224 40.9025L24.2897 41.7694H23.0628L23.0839 41.7906V44.3281H30.5087Z"/>
<path d="M63 32.0211C63 27.8342 61.0962 24.2817 57.9232 22.0825C57.6694 21.9134 57.4156 21.7442 57.1617 21.5962C56.379 21.131 55.5541 20.7503 54.7079 20.4754C54.5599 21.3424 54.2849 22.1671 53.9041 22.9707C53.7984 23.2456 53.6503 23.4993 53.5022 23.7531C52.9734 24.6835 52.3176 25.5293 51.5561 26.2694L48.2139 29.6105L50.0331 31.4291L53.3753 28.088C54.3272 27.1576 55.131 26.1003 55.8079 24.9372C55.956 24.6835 56.1041 24.4297 56.231 24.176C56.4637 24.3452 56.6963 24.5143 56.9079 24.7046C58.9597 26.4809 60.1232 29.0819 60.1232 32.0423C60.1232 35.0027 58.9809 37.6037 56.929 39.3799C57.3521 40.2046 57.6905 41.0716 57.9444 41.9598C61.0962 39.6971 63 36.1446 63 32.0211Z"/>
<path d="M44.3006 33.4802L36.8758 40.9025H40.5142L41.741 39.676V40.9025H44.3006V33.4802Z"/>
<path d="M22.2166 14.0894C22.2166 13.0109 22.3436 11.9536 22.6186 10.9175C21.8359 10.5368 21.0109 10.2831 20.1436 10.1562C19.8052 11.4461 19.636 12.7783 19.636 14.0894V22.2517H23.0628V22.2306L25.6223 19.6719H22.1955L22.2166 14.0894Z"/>
<path d="M19.6571 41.7694H14.0515C12.9727 41.7694 11.915 41.6426 10.8785 41.3465C10.4978 42.1289 10.2228 42.9748 10.0959 43.8206C11.3862 44.1589 12.7189 44.3281 14.0515 44.3281H22.2166V40.9025L19.6571 38.3438V41.7694Z"/>
<path d="M44.3006 30.5409L45.1679 31.4079V31.3868L46.9659 29.5682L41.741 24.3452V34.8336L44.3006 32.2537V30.5409Z"/>
<path d="M41.741 49.9318C41.741 51.0102 41.6141 52.0675 41.318 53.1037C42.1006 53.4843 42.9468 53.7592 43.8141 53.8861C44.1525 52.5962 44.3217 51.264 44.3217 49.9318V41.7694H40.8949V41.7906L38.3354 44.3492H41.7622L41.741 49.9318Z"/>
<path d="M26.8703 19.693L24.2897 22.2517H34.8028L32.2221 19.693H30.4875L31.3548 18.8261L29.5568 17.0075L26.8703 19.693Z"/>
<path d="M35.9239 10.6426L32.6029 13.9836L30.1702 16.4154L32.6029 18.8472V18.8261H36.1989L34.422 17.0286L33.8086 16.4154L34.422 15.8022L37.7431 12.44C38.5046 11.6787 39.3507 11.0232 40.2815 10.4945C40.0065 9.66985 39.5834 8.88745 39.0757 8.18963C37.9123 8.8663 36.8547 9.69099 35.9239 10.6426Z"/>
<path d="M28.0126 53.3997L33.7874 47.6269L31.3548 45.1951H27.7165L29.8741 47.352L30.1702 47.6269L26.2146 51.5812C25.4531 52.3424 24.607 52.998 23.6974 53.5266C23.9724 54.3513 24.3954 55.1337 24.9031 55.8315C26.0242 55.1548 27.0819 54.3302 28.0126 53.3997Z"/>
<path d="M46.9659 34.4529L47.5793 33.8397L51.535 37.794C52.2965 38.5552 52.9522 39.4011 53.4811 40.3315C54.306 40.0566 55.0675 39.6548 55.7656 39.1262C55.1099 37.9843 54.2849 36.927 53.333 35.9754L47.5793 30.2026L45.7601 32.0211L45.464 32.296L45.1467 32.6132V36.2292L46.9659 34.4529Z"/>
<path d="M16.9707 29.5894L16.3572 30.2026L12.4016 26.2483C11.6401 25.487 10.9843 24.6412 10.4555 23.7319C9.6305 24.0068 8.86899 24.4297 8.17093 24.9372C8.84783 26.0791 9.65165 27.1364 10.6035 28.0668L16.3784 33.8397L18.1975 32.0211L18.7898 31.4079V27.8131L16.9707 29.5894Z"/>
<path d="M23.4224 23.1187L23.0839 23.4782L22.2166 24.3452V23.1187H19.6571V30.5409L27.0607 23.1187H23.4224Z"/>
<path d="M39.6469 41.7694H29.1549L31.7356 44.3281H33.449L32.5817 45.1951H32.6029L34.4009 47.0136L39.6469 41.7694Z"/>
<path d="M9.24974 43.588C9.39782 42.721 9.65165 41.8752 10.0536 41.0928C10.1593 40.839 10.3074 40.5853 10.4555 40.3315C11.0055 39.4011 11.6612 38.5552 12.4227 37.794L15.7649 34.4741L13.9458 32.6555L10.6035 35.9966C9.65165 36.927 8.84783 37.9843 8.17093 39.1262C8.02286 39.3799 7.89594 39.6337 7.76902 39.9086C7.53633 39.7394 7.30365 39.5491 7.07096 39.3588C5.01911 37.5825 3.87683 34.9816 3.87683 32.0423C3.87683 29.0607 5.01911 26.4598 7.07096 24.7046C6.6479 23.8799 6.30945 23.013 6.05561 22.1248C2.88263 24.3452 1 27.94 1 32.0634C1 36.2292 2.90379 39.8029 6.07676 42.0232C6.3306 42.1924 6.58444 42.3615 6.83828 42.5095C7.57864 42.9113 8.38246 43.2919 9.24974 43.588Z"/>
<path d="M41.0641 10.0928C41.1699 10.3677 41.2545 10.6426 41.318 10.9175C41.593 11.9536 41.741 13.0109 41.7199 14.0894V18.8261H44.3006V14.0894C44.3006 12.7572 44.1313 11.425 43.7929 10.1351C43.7294 9.86016 43.6237 9.56412 43.5391 9.28922C43.8352 9.24693 44.1313 9.20464 44.4275 9.18349C47.1139 8.99318 49.7793 10.0082 51.8523 12.1016C53.9253 14.1951 54.9829 16.8595 54.7926 19.545C55.681 19.8199 56.5271 20.2005 57.3521 20.6446C58.029 16.8383 56.8233 12.9686 53.9041 10.0505C50.985 7.13233 47.1139 5.92701 43.3064 6.60368C43.0102 6.64598 42.6929 6.70941 42.3968 6.794C41.5295 7.0266 40.6622 7.34379 39.8584 7.74557C40.3661 8.48567 40.768 9.26808 41.0641 10.0928Z"/>
<path d="M22.8724 53.9284C22.7666 53.6535 22.682 53.3786 22.6186 53.1037C22.3436 52.0675 22.1955 51.0102 22.2166 49.9318V45.2162H19.6571V49.9318C19.6571 51.264 19.8263 52.5962 20.1648 53.8861C20.2282 54.1821 20.334 54.457 20.4186 54.7319C20.1225 54.7742 19.8263 54.8165 19.5302 54.8377C16.8437 55.028 14.1784 54.013 12.0843 51.9195C10.0113 49.8472 8.9536 47.1617 9.14398 44.4761C8.25554 44.1801 7.40942 43.8206 6.58444 43.3554C5.92869 47.1617 7.11327 51.0314 10.0324 53.9495C12.9516 56.8677 16.8437 58.073 20.6302 57.4175C20.9475 57.354 21.2436 57.2906 21.5397 57.206C22.407 56.9945 23.2532 56.6773 24.057 56.2756C23.5705 55.5355 23.1685 54.7531 22.8724 53.9284Z"/>
<path d="M57.1617 42.4461C56.9502 41.5791 56.6329 40.7121 56.231 39.9086C55.5118 40.4161 54.7502 40.8179 53.9253 41.1139C53.6503 41.2196 53.3753 41.3042 53.0791 41.3677C52.0426 41.6426 50.985 41.7906 49.9062 41.7694H45.189V44.3281H49.9062C51.2388 44.3281 52.5715 44.1589 53.8407 43.8206C54.1368 43.7572 54.4118 43.6726 54.6868 43.5668C54.7502 43.8629 54.7714 44.1589 54.7926 44.455C54.9829 47.1405 53.9676 49.8049 51.8734 51.8984C49.7793 53.9918 47.1351 54.9857 44.4275 54.8165C44.1525 55.7258 43.7717 56.5928 43.3064 57.3963C47.1139 58.073 50.9638 56.8677 53.9041 53.9284C56.8444 50.9891 58.029 47.1405 57.3521 43.3342L57.1617 42.4461Z"/>
<path d="M6.77482 21.5962C7.00751 22.4632 7.3248 23.3301 7.72671 24.1337C8.44592 23.6262 9.20744 23.2244 10.0324 22.9284C10.3074 22.8226 10.5824 22.7381 10.8785 22.6535C11.915 22.3786 12.9727 22.2517 14.0515 22.2517H18.7687V19.6719H14.0515C12.7189 19.6719 11.4074 19.8411 10.117 20.1794C9.82088 20.2428 9.54589 20.3486 9.24974 20.4332C9.18628 20.1371 9.16513 19.8411 9.14398 19.5239C8.9536 16.8383 9.99011 14.1951 12.0843 12.0805C14.1784 9.96589 16.8226 8.99318 19.509 9.16235C19.784 8.25307 20.1648 7.38608 20.6513 6.58254C16.8437 5.94816 12.9727 7.13233 10.0324 10.0716C7.09212 13.0109 5.92869 16.8595 6.58444 20.6658C6.6479 20.9829 6.71136 21.279 6.77482 21.5962Z"/>
<path d="M41.043 53.9284C40.768 53.8015 40.5142 53.6746 40.2603 53.5266C39.3296 52.998 38.4834 52.3424 37.7219 51.5812L34.4009 48.2401L32.5817 50.0587L35.9239 53.3997C36.8547 54.3513 37.9123 55.1548 39.0757 55.8315C39.3296 55.9795 39.5834 56.1276 39.8584 56.2544C39.6892 56.487 39.4988 56.7196 39.3084 56.9311C37.5316 58.9823 34.9297 60.1241 31.9894 60.1241C29.0068 60.1241 26.405 58.9823 24.6281 56.9311C23.8031 57.354 22.957 57.6924 22.0474 57.9461C24.2685 61.118 27.8434 63 31.9683 63C36.1354 63 39.6892 61.0969 41.9103 57.9461C42.0795 57.6924 42.2487 57.4386 42.3968 57.1849C42.8622 56.4025 43.2641 55.5566 43.5391 54.6896C42.6929 54.5628 41.8468 54.309 41.043 53.9284Z"/>
<path d="M22.2166 29.2087L19.6571 31.7674V33.4802L18.7898 32.6344L18.7687 32.6132V32.6344L16.9707 34.4318L18.7687 36.2503L19.6571 37.1173L22.2166 39.676V29.2087Z"/>
<path d="M22.8936 10.0928C23.1685 10.2196 23.4224 10.3465 23.6762 10.4945C24.607 11.0232 25.4531 11.6787 26.1934 12.44L29.5356 15.781L31.3548 13.9625L28.0338 10.6214C27.103 9.66985 26.0454 8.8663 24.9031 8.18963C24.6493 8.04161 24.3954 7.89359 24.1204 7.76671C24.2897 7.53411 24.48 7.3015 24.6704 7.06889C26.4473 5.03888 29.0491 3.87585 31.9894 3.87585C34.972 3.87585 37.5739 5.03888 39.3296 7.06889C40.1546 6.64597 41.0218 6.28649 41.9103 6.05389C39.668 2.88199 36.0931 1 31.9683 1C27.7799 1 24.2262 2.90314 22.0263 6.05389C21.857 6.30764 21.6878 6.56139 21.5397 6.81514C21.0744 7.59754 20.6936 8.44338 20.3975 9.31037C21.2648 9.45839 22.0897 9.73329 22.8936 10.0928Z"/>
<path d="M31.1433 27.073H28.1184V36.927H31.1433C33.9144 36.927 35.8181 35.0239 35.8181 32C35.8181 28.9761 33.9144 27.073 31.1433 27.073Z"/>
</mask>
<path d="M33.449 19.693L40.8738 27.1153V23.4782L39.6469 22.2517H40.8738V19.693H33.449Z" fill="black"/>
<path d="M53.0791 22.6746C53.4599 21.8922 53.7349 21.0675 53.8618 20.2005C52.5715 19.8622 51.2388 19.693 49.885 19.693H41.7199V23.1187H41.741L44.3006 25.6774V22.2517H49.885C50.9638 22.2517 52.0426 22.3997 53.0791 22.6746Z" fill="black"/>
<path d="M30.5087 44.3281L27.928 41.7694L23.0839 36.927V40.543L23.4224 40.9025L24.2897 41.7694H23.0628L23.0839 41.7906V44.3281H30.5087Z" fill="black"/>
<path d="M63 32.0211C63 27.8342 61.0962 24.2817 57.9232 22.0825C57.6694 21.9134 57.4156 21.7442 57.1617 21.5962C56.379 21.131 55.5541 20.7503 54.7079 20.4754C54.5599 21.3424 54.2849 22.1671 53.9041 22.9707C53.7984 23.2456 53.6503 23.4993 53.5022 23.7531C52.9734 24.6835 52.3176 25.5293 51.5561 26.2694L48.2139 29.6105L50.0331 31.4291L53.3753 28.088C54.3272 27.1576 55.131 26.1003 55.8079 24.9372C55.956 24.6835 56.1041 24.4297 56.231 24.176C56.4637 24.3452 56.6963 24.5143 56.9079 24.7046C58.9597 26.4809 60.1232 29.0819 60.1232 32.0423C60.1232 35.0027 58.9809 37.6037 56.929 39.3799C57.3521 40.2046 57.6905 41.0716 57.9444 41.9598C61.0962 39.6971 63 36.1446 63 32.0211Z" fill="black"/>
<path d="M44.3006 33.4802L36.8758 40.9025H40.5142L41.741 39.676V40.9025H44.3006V33.4802Z" fill="black"/>
<path d="M22.2166 14.0894C22.2166 13.0109 22.3436 11.9536 22.6186 10.9175C21.8359 10.5368 21.0109 10.2831 20.1436 10.1562C19.8052 11.4461 19.636 12.7783 19.636 14.0894V22.2517H23.0628V22.2306L25.6223 19.6719H22.1955L22.2166 14.0894Z" fill="black"/>
<path d="M19.6571 41.7694H14.0515C12.9727 41.7694 11.915 41.6426 10.8785 41.3465C10.4978 42.1289 10.2228 42.9748 10.0959 43.8206C11.3862 44.1589 12.7189 44.3281 14.0515 44.3281H22.2166V40.9025L19.6571 38.3438V41.7694Z" fill="black"/>
<path d="M44.3006 30.5409L45.1679 31.4079V31.3868L46.9659 29.5682L41.741 24.3452V34.8336L44.3006 32.2537V30.5409Z" fill="black"/>
<path d="M41.741 49.9318C41.741 51.0102 41.6141 52.0675 41.318 53.1037C42.1006 53.4843 42.9468 53.7592 43.8141 53.8861C44.1525 52.5962 44.3217 51.264 44.3217 49.9318V41.7694H40.8949V41.7906L38.3354 44.3492H41.7622L41.741 49.9318Z" fill="black"/>
<path d="M26.8703 19.693L24.2897 22.2517H34.8028L32.2221 19.693H30.4875L31.3548 18.8261L29.5568 17.0075L26.8703 19.693Z" fill="black"/>
<path d="M35.9239 10.6426L32.6029 13.9836L30.1702 16.4154L32.6029 18.8472V18.8261H36.1989L34.422 17.0286L33.8086 16.4154L34.422 15.8022L37.7431 12.44C38.5046 11.6787 39.3507 11.0232 40.2815 10.4945C40.0065 9.66985 39.5834 8.88745 39.0757 8.18963C37.9123 8.8663 36.8547 9.69099 35.9239 10.6426Z" fill="black"/>
<path d="M28.0126 53.3997L33.7874 47.6269L31.3548 45.1951H27.7165L29.8741 47.352L30.1702 47.6269L26.2146 51.5812C25.4531 52.3424 24.607 52.998 23.6974 53.5266C23.9724 54.3513 24.3954 55.1337 24.9031 55.8315C26.0242 55.1548 27.0819 54.3302 28.0126 53.3997Z" fill="black"/>
<path d="M46.9659 34.4529L47.5793 33.8397L51.535 37.794C52.2965 38.5552 52.9522 39.4011 53.4811 40.3315C54.306 40.0566 55.0675 39.6548 55.7656 39.1262C55.1099 37.9843 54.2849 36.927 53.333 35.9754L47.5793 30.2026L45.7601 32.0211L45.464 32.296L45.1467 32.6132V36.2292L46.9659 34.4529Z" fill="black"/>
<path d="M16.9707 29.5894L16.3572 30.2026L12.4016 26.2483C11.6401 25.487 10.9843 24.6412 10.4555 23.7319C9.6305 24.0068 8.86899 24.4297 8.17093 24.9372C8.84783 26.0791 9.65165 27.1364 10.6035 28.0668L16.3784 33.8397L18.1975 32.0211L18.7898 31.4079V27.8131L16.9707 29.5894Z" fill="black"/>
<path d="M23.4224 23.1187L23.0839 23.4782L22.2166 24.3452V23.1187H19.6571V30.5409L27.0607 23.1187H23.4224Z" fill="black"/>
<path d="M39.6469 41.7694H29.1549L31.7356 44.3281H33.449L32.5817 45.1951H32.6029L34.4009 47.0136L39.6469 41.7694Z" fill="black"/>
<path d="M9.24974 43.588C9.39782 42.721 9.65165 41.8752 10.0536 41.0928C10.1593 40.839 10.3074 40.5853 10.4555 40.3315C11.0055 39.4011 11.6612 38.5552 12.4227 37.794L15.7649 34.4741L13.9458 32.6555L10.6035 35.9966C9.65165 36.927 8.84783 37.9843 8.17093 39.1262C8.02286 39.3799 7.89594 39.6337 7.76902 39.9086C7.53633 39.7394 7.30365 39.5491 7.07096 39.3588C5.01911 37.5825 3.87683 34.9816 3.87683 32.0423C3.87683 29.0607 5.01911 26.4598 7.07096 24.7046C6.6479 23.8799 6.30945 23.013 6.05561 22.1248C2.88263 24.3452 1 27.94 1 32.0634C1 36.2292 2.90379 39.8029 6.07676 42.0232C6.3306 42.1924 6.58444 42.3615 6.83828 42.5095C7.57864 42.9113 8.38246 43.2919 9.24974 43.588Z" fill="black"/>
<path d="M41.0641 10.0928C41.1699 10.3677 41.2545 10.6426 41.318 10.9175C41.593 11.9536 41.741 13.0109 41.7199 14.0894V18.8261H44.3006V14.0894C44.3006 12.7572 44.1313 11.425 43.7929 10.1351C43.7294 9.86016 43.6237 9.56412 43.5391 9.28922C43.8352 9.24693 44.1313 9.20464 44.4275 9.18349C47.1139 8.99318 49.7793 10.0082 51.8523 12.1016C53.9253 14.1951 54.9829 16.8595 54.7926 19.545C55.681 19.8199 56.5271 20.2005 57.3521 20.6446C58.029 16.8383 56.8233 12.9686 53.9041 10.0505C50.985 7.13233 47.1139 5.92701 43.3064 6.60368C43.0102 6.64598 42.6929 6.70941 42.3968 6.794C41.5295 7.0266 40.6622 7.34379 39.8584 7.74557C40.3661 8.48567 40.768 9.26808 41.0641 10.0928Z" fill="black"/>
<path d="M22.8724 53.9284C22.7666 53.6535 22.682 53.3786 22.6186 53.1037C22.3436 52.0675 22.1955 51.0102 22.2166 49.9318V45.2162H19.6571V49.9318C19.6571 51.264 19.8263 52.5962 20.1648 53.8861C20.2282 54.1821 20.334 54.457 20.4186 54.7319C20.1225 54.7742 19.8263 54.8165 19.5302 54.8377C16.8437 55.028 14.1784 54.013 12.0843 51.9195C10.0113 49.8472 8.9536 47.1617 9.14398 44.4761C8.25554 44.1801 7.40942 43.8206 6.58444 43.3554C5.92869 47.1617 7.11327 51.0314 10.0324 53.9495C12.9516 56.8677 16.8437 58.073 20.6302 57.4175C20.9475 57.354 21.2436 57.2906 21.5397 57.206C22.407 56.9945 23.2532 56.6773 24.057 56.2756C23.5705 55.5355 23.1685 54.7531 22.8724 53.9284Z" fill="black"/>
<path d="M57.1617 42.4461C56.9502 41.5791 56.6329 40.7121 56.231 39.9086C55.5118 40.4161 54.7502 40.8179 53.9253 41.1139C53.6503 41.2196 53.3753 41.3042 53.0791 41.3677C52.0426 41.6426 50.985 41.7906 49.9062 41.7694H45.189V44.3281H49.9062C51.2388 44.3281 52.5715 44.1589 53.8407 43.8206C54.1368 43.7572 54.4118 43.6726 54.6868 43.5668C54.7502 43.8629 54.7714 44.1589 54.7926 44.455C54.9829 47.1405 53.9676 49.8049 51.8734 51.8984C49.7793 53.9918 47.1351 54.9857 44.4275 54.8165C44.1525 55.7258 43.7717 56.5928 43.3064 57.3963C47.1139 58.073 50.9638 56.8677 53.9041 53.9284C56.8444 50.9891 58.029 47.1405 57.3521 43.3342L57.1617 42.4461Z" fill="black"/>
<path d="M6.77482 21.5962C7.00751 22.4632 7.3248 23.3301 7.72671 24.1337C8.44592 23.6262 9.20744 23.2244 10.0324 22.9284C10.3074 22.8226 10.5824 22.7381 10.8785 22.6535C11.915 22.3786 12.9727 22.2517 14.0515 22.2517H18.7687V19.6719H14.0515C12.7189 19.6719 11.4074 19.8411 10.117 20.1794C9.82088 20.2428 9.54589 20.3486 9.24974 20.4332C9.18628 20.1371 9.16513 19.8411 9.14398 19.5239C8.9536 16.8383 9.99011 14.1951 12.0843 12.0805C14.1784 9.96589 16.8226 8.99318 19.509 9.16235C19.784 8.25307 20.1648 7.38608 20.6513 6.58254C16.8437 5.94816 12.9727 7.13233 10.0324 10.0716C7.09212 13.0109 5.92869 16.8595 6.58444 20.6658C6.6479 20.9829 6.71136 21.279 6.77482 21.5962Z" fill="black"/>
<path d="M41.043 53.9284C40.768 53.8015 40.5142 53.6746 40.2603 53.5266C39.3296 52.998 38.4834 52.3424 37.7219 51.5812L34.4009 48.2401L32.5817 50.0587L35.9239 53.3997C36.8547 54.3513 37.9123 55.1548 39.0757 55.8315C39.3296 55.9795 39.5834 56.1276 39.8584 56.2544C39.6892 56.487 39.4988 56.7196 39.3084 56.9311C37.5316 58.9823 34.9297 60.1241 31.9894 60.1241C29.0068 60.1241 26.405 58.9823 24.6281 56.9311C23.8031 57.354 22.957 57.6924 22.0474 57.9461C24.2685 61.118 27.8434 63 31.9683 63C36.1354 63 39.6892 61.0969 41.9103 57.9461C42.0795 57.6924 42.2487 57.4386 42.3968 57.1849C42.8622 56.4025 43.2641 55.5566 43.5391 54.6896C42.6929 54.5628 41.8468 54.309 41.043 53.9284Z" fill="black"/>
<path d="M22.2166 29.2087L19.6571 31.7674V33.4802L18.7898 32.6344L18.7687 32.6132V32.6344L16.9707 34.4318L18.7687 36.2503L19.6571 37.1173L22.2166 39.676V29.2087Z" fill="black"/>
<path d="M22.8936 10.0928C23.1685 10.2196 23.4224 10.3465 23.6762 10.4945C24.607 11.0232 25.4531 11.6787 26.1934 12.44L29.5356 15.781L31.3548 13.9625L28.0338 10.6214C27.103 9.66985 26.0454 8.8663 24.9031 8.18963C24.6493 8.04161 24.3954 7.89359 24.1204 7.76671C24.2897 7.53411 24.48 7.3015 24.6704 7.06889C26.4473 5.03888 29.0491 3.87585 31.9894 3.87585C34.972 3.87585 37.5739 5.03888 39.3296 7.06889C40.1546 6.64597 41.0218 6.28649 41.9103 6.05389C39.668 2.88199 36.0931 1 31.9683 1C27.7799 1 24.2262 2.90314 22.0263 6.05389C21.857 6.30764 21.6878 6.56139 21.5397 6.81514C21.0744 7.59754 20.6936 8.44338 20.3975 9.31037C21.2648 9.45839 22.0897 9.73329 22.8936 10.0928Z" fill="black"/>
<path d="M31.1433 27.073H28.1184V36.927H31.1433C33.9144 36.927 35.8181 35.0239 35.8181 32C35.8181 28.9761 33.9144 27.073 31.1433 27.073Z" fill="black"/>
<path d="M31.3548 18.8814H31.376V18.7707H31.3548V18.8814ZM33.449 19.693V19.5823H33.1816L33.3707 19.7713L33.449 19.693ZM40.8738 27.1153L40.7955 27.1936L40.9845 27.3825V27.1153H40.8738ZM40.8738 23.4782H40.9845V23.4323L40.952 23.3999L40.8738 23.4782ZM39.6469 22.2517V22.141H39.3795L39.5686 22.33L39.6469 22.2517ZM40.8738 22.2517V22.3624H40.9845V22.2517H40.8738ZM40.8738 19.693H40.9845V19.5823H40.8738V19.693ZM53.0791 22.6746L53.0508 22.7816L53.1388 22.805L53.1787 22.7231L53.0791 22.6746ZM53.8618 20.2005L53.9714 20.2166L53.9857 20.1186L53.8899 20.0935L53.8618 20.2005ZM41.7199 19.693V19.5823H41.6092V19.693H41.7199ZM41.7199 23.1187H41.6092V23.2294H41.7199V23.1187ZM41.741 23.1187L41.8193 23.0404L41.7869 23.008H41.741V23.1187ZM44.3006 25.6774L44.2223 25.7557L44.4113 25.9446V25.6774H44.3006ZM44.3006 22.2517V22.141H44.1899V22.2517H44.3006ZM30.5087 44.3281V44.4388H30.7776L30.5866 44.2495L30.5087 44.3281ZM27.928 41.7694L27.8497 41.8477L27.8501 41.8481L27.928 41.7694ZM23.0839 36.927L23.1622 36.8487L22.9732 36.6598V36.927H23.0839ZM23.0839 40.543H22.9732V40.5869L23.0033 40.6189L23.0839 40.543ZM23.4224 40.9025L23.3417 40.9784L23.3441 40.9808L23.4224 40.9025ZM24.2897 41.7694V41.8802H24.557L24.3679 41.6911L24.2897 41.7694ZM23.0628 41.7694V41.6587H22.7954L22.9845 41.8477L23.0628 41.7694ZM23.0839 41.7906H23.1946V41.7447L23.1622 41.7123L23.0839 41.7906ZM23.0839 44.3281H22.9732V44.4388H23.0839V44.3281ZM57.9232 22.0825L57.9863 21.9915L57.9846 21.9904L57.9232 22.0825ZM57.1617 21.5962L57.1051 21.6914L57.1059 21.6918L57.1617 21.5962ZM54.7079 20.4754L54.7422 20.3701L54.6204 20.3306L54.5988 20.4568L54.7079 20.4754ZM53.9041 22.9707L53.8038 22.9231L53.8008 22.9309L53.9041 22.9707ZM53.5022 23.7531L53.4066 23.6973L53.406 23.6984L53.5022 23.7531ZM51.5561 26.2694L51.4789 26.19L51.4778 26.1911L51.5561 26.2694ZM48.2139 29.6105L48.1356 29.5322L48.0573 29.6105L48.1356 29.6888L48.2139 29.6105ZM50.0331 31.4291L49.9548 31.5074L50.0331 31.5856L50.1114 31.5074L50.0331 31.4291ZM53.3753 28.088L53.2979 28.0088L53.297 28.0097L53.3753 28.088ZM55.8079 24.9372L55.7123 24.8814L55.7122 24.8816L55.8079 24.9372ZM56.231 24.176L56.2961 24.0864L56.1904 24.0096L56.132 24.1265L56.231 24.176ZM56.9079 24.7046L56.8338 24.787L56.8354 24.7883L56.9079 24.7046ZM56.929 39.3799L56.8566 39.2962L56.7908 39.3531L56.8305 39.4305L56.929 39.3799ZM57.9444 41.9598L57.8379 41.9902L57.8812 42.1414L58.0089 42.0497L57.9444 41.9598ZM44.3006 33.4802H44.4113V33.213L44.2223 33.4019L44.3006 33.4802ZM36.8758 40.9025L36.7975 40.8242L36.6085 41.0132H36.8758V40.9025ZM40.5142 40.9025V41.0132H40.56L40.5924 40.9808L40.5142 40.9025ZM41.741 39.676H41.8518V39.4088L41.6628 39.5977L41.741 39.676ZM41.741 40.9025H41.6303V41.0132H41.741V40.9025ZM44.3006 40.9025V41.0132H44.4113V40.9025H44.3006ZM22.2166 14.0894L22.3274 14.0898V14.0894H22.2166ZM22.6186 10.9175L22.7256 10.9459L22.749 10.8578L22.667 10.8179L22.6186 10.9175ZM20.1436 10.1562L20.1597 10.0467L20.0617 10.0323L20.0365 10.1281L20.1436 10.1562ZM19.636 22.2517H19.5252V22.3624H19.636V22.2517ZM23.0628 22.2517V22.3624H23.1735V22.2517H23.0628ZM23.0628 22.2306L22.9845 22.1523L22.9521 22.1847V22.2306H23.0628ZM25.6223 19.6719L25.7006 19.7502L25.8897 19.5612H25.6223V19.6719ZM22.1955 19.6719L22.0848 19.6715L22.0844 19.7826H22.1955V19.6719ZM19.6571 41.7694V41.8802H19.7678V41.7694H19.6571ZM10.8785 41.3465L10.9089 41.2401L10.8196 41.2146L10.779 41.2981L10.8785 41.3465ZM10.0959 43.8206L9.98638 43.8042L9.97163 43.9025L10.0678 43.9277L10.0959 43.8206ZM22.2166 44.3281V44.4388H22.3274V44.3281H22.2166ZM22.2166 40.9025H22.3274V40.8566L22.2949 40.8242L22.2166 40.9025ZM19.6571 38.3438L19.7354 38.2655L19.5464 38.0766V38.3438H19.6571ZM44.3006 30.5409L44.3788 30.4626L44.1899 30.2737V30.5409H44.3006ZM45.1679 31.4079L45.0896 31.4862L45.2786 31.6751V31.4079H45.1679ZM45.1679 31.3868L45.0891 31.3089L45.0571 31.3413V31.3868H45.1679ZM46.9659 29.5682L47.0446 29.6461L47.122 29.5678L47.0441 29.4899L46.9659 29.5682ZM41.741 24.3452L41.8193 24.2669L41.6303 24.0779V24.3452H41.741ZM41.741 34.8336H41.6303V35.1023L41.8196 34.9115L41.741 34.8336ZM44.3006 32.2537L44.3792 32.3317L44.4113 32.2994V32.2537H44.3006ZM41.741 49.9318L41.6303 49.9314V49.9318H41.741ZM41.318 53.1037L41.2115 53.0733L41.186 53.1626L41.2696 53.2032L41.318 53.1037ZM43.8141 53.8861L43.798 53.9956L43.896 54.01L43.9211 53.9142L43.8141 53.8861ZM44.3217 41.7694H44.4324V41.6587H44.3217V41.7694ZM40.8949 41.7694V41.6587H40.7842V41.7694H40.8949ZM40.8949 41.7906L40.9732 41.8689L41.0056 41.8365V41.7906H40.8949ZM38.3354 44.3492L38.2571 44.2709L38.068 44.46H38.3354V44.3492ZM41.7622 44.3492L41.8729 44.3497L41.8733 44.2385H41.7622V44.3492ZM26.8703 19.693L26.9483 19.7717L26.9486 19.7713L26.8703 19.693ZM24.2897 22.2517L24.2117 22.1731L24.0207 22.3624H24.2897V22.2517ZM34.8028 22.2517V22.3624H35.0717L34.8807 22.1731L34.8028 22.2517ZM32.2221 19.693L32.3001 19.6144L32.2677 19.5823H32.2221V19.693ZM30.4875 19.693L30.4093 19.6147L30.2202 19.8038H30.4875V19.693ZM31.3548 18.8261L31.4331 18.9044L31.511 18.8265L31.4336 18.7482L31.3548 18.8261ZM29.5568 17.0075L29.6355 16.9297L29.5573 16.8505L29.4785 16.9292L29.5568 17.0075ZM35.9239 10.6426L36.0024 10.7206L36.0031 10.72L35.9239 10.6426ZM32.6029 13.9836L32.6811 14.0619L32.6814 14.0617L32.6029 13.9836ZM30.1702 16.4154L30.092 16.3371L30.0136 16.4154L30.092 16.4937L30.1702 16.4154ZM32.6029 18.8472L32.5246 18.9255L32.7136 19.1144V18.8472H32.6029ZM32.6029 18.8261V18.7153H32.4921V18.8261H32.6029ZM36.1989 18.8261V18.9368H36.464L36.2776 18.7482L36.1989 18.8261ZM34.422 17.0286L34.5008 16.9508L34.5003 16.9503L34.422 17.0286ZM33.8086 16.4154L33.7303 16.3371L33.652 16.4154L33.7303 16.4937L33.8086 16.4154ZM34.422 15.8022L34.5003 15.8805L34.5008 15.88L34.422 15.8022ZM37.7431 12.44L37.6648 12.3617L37.6643 12.3622L37.7431 12.44ZM40.2815 10.4945L40.3361 10.5908L40.4153 10.5459L40.3865 10.4595L40.2815 10.4945ZM39.0757 8.18963L39.1653 8.1245L39.1065 8.04368L39.0201 8.09393L39.0757 8.18963ZM28.0126 53.3997L28.0909 53.478L28.0909 53.478L28.0126 53.3997ZM33.7874 47.6269L33.8657 47.7052L33.944 47.6269L33.8657 47.5486L33.7874 47.6269ZM31.3548 45.1951L31.4331 45.1168L31.4007 45.0844H31.3548V45.1951ZM27.7165 45.1951V45.0844H27.4491L27.6382 45.2734L27.7165 45.1951ZM29.8741 47.352L29.7958 47.4303L29.7988 47.4331L29.8741 47.352ZM30.1702 47.6269L30.2485 47.7052L30.3298 47.6239L30.2456 47.5457L30.1702 47.6269ZM26.2146 51.5812L26.2929 51.6595L26.2929 51.6595L26.2146 51.5812ZM23.6974 53.5266L23.6417 53.4309L23.5638 53.4762L23.5923 53.5616L23.6974 53.5266ZM24.9031 55.8315L24.8136 55.8966L24.8733 55.9788L24.9603 55.9263L24.9031 55.8315ZM46.9659 34.4529L47.0432 34.5322L47.0441 34.5312L46.9659 34.4529ZM47.5793 33.8397L47.6576 33.7614L47.5793 33.6831L47.501 33.7614L47.5793 33.8397ZM51.535 37.794L51.4567 37.8723L51.4567 37.8723L51.535 37.794ZM53.4811 40.3315L53.3848 40.3862L53.4298 40.4653L53.5161 40.4365L53.4811 40.3315ZM55.7656 39.1262L55.8324 39.2144L55.9102 39.1556L55.8616 39.0711L55.7656 39.1262ZM53.333 35.9754L53.2546 36.0536L53.2547 36.0537L53.333 35.9754ZM47.5793 30.2026L47.6577 30.1244L47.5795 30.0459L47.501 30.1243L47.5793 30.2026ZM45.7601 32.0211L45.8355 32.1023L45.8384 32.0994L45.7601 32.0211ZM45.464 32.296L45.3886 32.2148L45.3857 32.2177L45.464 32.296ZM45.1467 32.6132L45.0684 32.5349L45.036 32.5674V32.6132H45.1467ZM45.1467 36.2292H45.036V36.492L45.224 36.3084L45.1467 36.2292ZM16.9707 29.5894L16.8933 29.5101L16.8924 29.5111L16.9707 29.5894ZM16.3572 30.2026L16.2789 30.2809L16.3572 30.3591L16.4355 30.2809L16.3572 30.2026ZM12.4016 26.2483L12.4798 26.17L12.4798 26.17L12.4016 26.2483ZM10.4555 23.7319L10.5512 23.6763L10.5059 23.5984L10.4205 23.6269L10.4555 23.7319ZM8.17093 24.9372L8.10583 24.8477L8.02428 24.907L8.07569 24.9937L8.17093 24.9372ZM10.6035 28.0668L10.6818 27.9885L10.6809 27.9877L10.6035 28.0668ZM16.3784 33.8397L16.3001 33.918L16.3784 33.9962L16.4566 33.918L16.3784 33.8397ZM18.1975 32.0211L18.2758 32.0995L18.2772 32.0981L18.1975 32.0211ZM18.7898 31.4079L18.8695 31.4848L18.9005 31.4526V31.4079H18.7898ZM18.7898 27.8131H18.9005V27.5503L18.7125 27.7339L18.7898 27.8131ZM23.4224 23.1187V23.008H23.3746L23.3418 23.0428L23.4224 23.1187ZM23.0839 23.4782L23.1622 23.5565L23.1645 23.5541L23.0839 23.4782ZM22.2166 24.3452H22.1059V24.6124L22.2949 24.4235L22.2166 24.3452ZM22.2166 23.1187H22.3274V23.008H22.2166V23.1187ZM19.6571 23.1187V23.008H19.5464V23.1187H19.6571ZM19.6571 30.5409H19.5464V30.8087L19.7355 30.6191L19.6571 30.5409ZM27.0607 23.1187L27.1391 23.1969L27.3275 23.008H27.0607V23.1187ZM39.6469 41.7694L39.7251 41.8477L39.9142 41.6587H39.6469V41.7694ZM29.1549 41.7694V41.6587H28.886L29.0769 41.8481L29.1549 41.7694ZM31.7356 44.3281L31.6576 44.4067L31.69 44.4388H31.7356V44.3281ZM33.449 44.3281L33.5273 44.4064L33.7163 44.2174H33.449V44.3281ZM32.5817 45.1951L32.5034 45.1168L32.3144 45.3058H32.5817V45.1951ZM32.6029 45.1951L32.6816 45.1172L32.6491 45.0844H32.6029V45.1951ZM34.4009 47.0136L34.3222 47.0915L34.4004 47.1706L34.4792 47.0919L34.4009 47.0136ZM9.24974 43.588L9.21398 43.6928L9.33699 43.7348L9.35888 43.6066L9.24974 43.588ZM10.0536 41.0928L10.1524 41.1435L10.1558 41.1354L10.0536 41.0928ZM10.4555 40.3315L10.3602 40.2752L10.3599 40.2757L10.4555 40.3315ZM12.4227 37.794L12.3447 37.7154L12.3444 37.7157L12.4227 37.794ZM15.7649 34.4741L15.843 34.5526L15.9218 34.4743L15.8432 34.3958L15.7649 34.4741ZM13.9458 32.6555L14.024 32.5772L13.9458 32.499L13.8675 32.5772L13.9458 32.6555ZM10.6035 35.9966L10.6809 36.0758L10.6818 36.0749L10.6035 35.9966ZM8.17093 39.1262L8.07569 39.0697L8.07531 39.0704L8.17093 39.1262ZM7.76902 39.9086L7.70392 39.9981L7.813 40.0774L7.86954 39.955L7.76902 39.9086ZM7.07096 39.3588L6.99847 39.4425L7.00087 39.4445L7.07096 39.3588ZM7.07096 24.7046L7.14293 24.7888L7.20939 24.7319L7.16947 24.6541L7.07096 24.7046ZM6.05561 22.1248L6.16206 22.0944L6.11938 21.9451L5.99214 22.0341L6.05561 22.1248ZM6.07676 42.0232L6.01327 42.1139L6.01537 42.1153L6.07676 42.0232ZM6.83828 42.5095L6.78248 42.6052L6.78547 42.6069L6.83828 42.5095ZM41.0641 10.0928L40.9599 10.1302L40.9608 10.1325L41.0641 10.0928ZM41.318 10.9175L41.21 10.9424L41.211 10.9459L41.318 10.9175ZM41.7199 14.0894L41.6092 14.0872V14.0894H41.7199ZM41.7199 18.8261H41.6092V18.9368H41.7199V18.8261ZM44.3006 18.8261V18.9368H44.4113V18.8261H44.3006ZM43.7929 10.1351L43.685 10.16L43.6858 10.1632L43.7929 10.1351ZM43.5391 9.28922L43.5234 9.17962L43.3951 9.19794L43.4332 9.32179L43.5391 9.28922ZM44.4275 9.18349L44.4197 9.07305L44.4196 9.07306L44.4275 9.18349ZM54.7926 19.545L54.6821 19.5372L54.6759 19.6248L54.7598 19.6508L54.7926 19.545ZM57.3521 20.6446L57.2996 20.7421L57.4343 20.8146L57.4611 20.664L57.3521 20.6446ZM43.3064 6.60368L43.322 6.71335L43.3257 6.71269L43.3064 6.60368ZM42.3968 6.794L42.4255 6.90095L42.4272 6.90045L42.3968 6.794ZM39.8584 7.74557L39.8089 7.64653L39.6952 7.70337L39.7671 7.80819L39.8584 7.74557ZM22.8724 53.9284L22.9766 53.891L22.9757 53.8886L22.8724 53.9284ZM22.6186 53.1037L22.7265 53.0788L22.7256 53.0753L22.6186 53.1037ZM22.2166 49.9318L22.3274 49.934V49.9318H22.2166ZM22.2166 45.2162H22.3274V45.1055H22.2166V45.2162ZM19.6571 45.2162V45.1055H19.5464V45.2162H19.6571ZM20.1648 53.8861L20.2732 53.8629L20.2719 53.858L20.1648 53.8861ZM20.4186 54.7319L20.4343 54.8415L20.5626 54.8232L20.5244 54.6994L20.4186 54.7319ZM19.5302 54.8377L19.538 54.9481L19.5381 54.9481L19.5302 54.8377ZM12.0843 51.9195L12.006 51.9978L12.0843 51.9195ZM9.14398 44.4761L9.25441 44.484L9.26049 44.3982L9.17898 44.3711L9.14398 44.4761ZM6.58444 43.3554L6.63882 43.2589L6.502 43.1818L6.47533 43.3366L6.58444 43.3554ZM20.6302 57.4175L20.6491 57.5266L20.6519 57.526L20.6302 57.4175ZM21.5397 57.206L21.5135 57.0984L21.5093 57.0995L21.5397 57.206ZM24.057 56.2756L24.1065 56.3746L24.2179 56.3189L24.1495 56.2148L24.057 56.2756ZM57.1617 42.4461L57.27 42.4229L57.2693 42.4199L57.1617 42.4461ZM56.231 39.9086L56.33 39.8591L56.2724 39.7439L56.1671 39.8181L56.231 39.9086ZM53.9253 41.1139L53.8879 41.0097L53.8855 41.0106L53.9253 41.1139ZM53.0791 41.3677L53.0559 41.2593L53.0508 41.2606L53.0791 41.3677ZM49.9062 41.7694L49.9083 41.6587H49.9062V41.7694ZM45.189 41.7694V41.6587H45.0783V41.7694H45.189ZM45.189 44.3281H45.0783V44.4388H45.189V44.3281ZM53.8407 43.8206L53.8174 43.7122L53.8121 43.7136L53.8407 43.8206ZM54.6868 43.5668L54.795 43.5436L54.7679 43.417L54.6471 43.4635L54.6868 43.5668ZM54.7926 44.455L54.903 44.4471L54.903 44.4471L54.7926 44.455ZM44.4275 54.8165L44.4344 54.706L44.3469 54.7005L44.3215 54.7845L44.4275 54.8165ZM43.3064 57.3963L43.2106 57.3408L43.1313 57.4777L43.287 57.5053L43.3064 57.3963ZM57.3521 43.3342L57.4612 43.3148L57.4603 43.311L57.3521 43.3342ZM6.77482 21.5962L6.66603 21.6179L6.66789 21.6249L6.77482 21.5962ZM7.72671 24.1337L7.6277 24.1832L7.68531 24.2984L7.79055 24.2242L7.72671 24.1337ZM10.0324 22.9284L10.0698 23.0326L10.0721 23.0317L10.0324 22.9284ZM10.8785 22.6535L10.8502 22.5464L10.8481 22.547L10.8785 22.6535ZM18.7687 22.2517V22.3624H18.8794V22.2517H18.7687ZM18.7687 19.6719H18.8794V19.5612H18.7687V19.6719ZM10.117 20.1794L10.1402 20.2878L10.1451 20.2865L10.117 20.1794ZM9.24974 20.4332L9.14149 20.4564L9.1663 20.5721L9.28015 20.5396L9.24974 20.4332ZM9.14398 19.5239L9.25445 19.5165L9.25441 19.516L9.14398 19.5239ZM19.509 9.16235L19.5021 9.27284L19.5896 9.27835L19.615 9.19439L19.509 9.16235ZM20.6513 6.58254L20.746 6.63988L20.8306 6.50017L20.6695 6.47333L20.6513 6.58254ZM6.58444 20.6658L6.4753 20.6846L6.47588 20.6875L6.58444 20.6658ZM41.043 53.9284L41.0904 53.8283L41.0894 53.8279L41.043 53.9284ZM40.2603 53.5266L40.3161 53.431L40.315 53.4303L40.2603 53.5266ZM37.7219 51.5812L37.6434 51.6592L37.6437 51.6595L37.7219 51.5812ZM34.4009 48.2401L34.4794 48.1621L34.4011 48.0833L34.3226 48.1618L34.4009 48.2401ZM32.5817 50.0587L32.5034 49.9804L32.4251 50.0587L32.5034 50.137L32.5817 50.0587ZM35.9239 53.3997L36.0031 53.3223L36.0022 53.3214L35.9239 53.3997ZM39.0757 55.8315L39.1315 55.7359L39.1314 55.7358L39.0757 55.8315ZM39.8584 56.2544L39.9479 56.3196L40.0273 56.2104L39.9048 56.1539L39.8584 56.2544ZM39.3084 56.9311L39.2261 56.857L39.2247 56.8586L39.3084 56.9311ZM24.6281 56.9311L24.7118 56.8586L24.6549 56.7929L24.5776 56.8326L24.6281 56.9311ZM22.0474 57.9461L22.0177 57.8395L21.867 57.8815L21.9567 58.0096L22.0474 57.9461ZM41.9103 57.9461L42.0008 58.0099L42.0024 58.0075L41.9103 57.9461ZM42.3968 57.1849L42.3016 57.1283L42.3012 57.1291L42.3968 57.1849ZM43.5391 54.6896L43.6446 54.7231L43.6838 54.5994L43.5555 54.5801L43.5391 54.6896ZM22.2166 29.2087H22.3274V28.9415L22.1384 29.1304L22.2166 29.2087ZM19.6571 31.7674L19.5788 31.6891L19.5464 31.7215V31.7674H19.6571ZM19.6571 33.4802L19.5798 33.5595L19.7678 33.7428V33.4802H19.6571ZM18.7898 32.6344L18.7116 32.7127L18.7125 32.7136L18.7898 32.6344ZM18.7687 32.6132L18.847 32.5349L18.658 32.346V32.6132H18.7687ZM18.7687 32.6344L18.847 32.7127L18.8794 32.6802V32.6344H18.7687ZM16.9707 34.4318L16.8924 34.3535L16.8145 34.4313L16.8919 34.5096L16.9707 34.4318ZM18.7687 36.2503L18.6899 36.3282L18.6914 36.3296L18.7687 36.2503ZM19.6571 37.1173L19.7354 37.039L19.7344 37.0381L19.6571 37.1173ZM22.2166 39.676L22.1384 39.7543L22.3274 39.9432V39.676H22.2166ZM22.8936 10.0928L22.9399 9.99223L22.9387 9.9917L22.8936 10.0928ZM23.6762 10.4945L23.6204 10.5902L23.6215 10.5908L23.6762 10.4945ZM26.1934 12.44L26.1141 12.5172L26.1152 12.5183L26.1934 12.44ZM29.5356 15.781L29.4574 15.8593L29.5356 15.9376L29.6139 15.8593L29.5356 15.781ZM31.3548 13.9625L31.4331 14.0408L31.5112 13.9627L31.4333 13.8844L31.3548 13.9625ZM28.0338 10.6214L27.9546 10.6988L27.9553 10.6995L28.0338 10.6214ZM24.9031 8.18963L24.9595 8.09437L24.9589 8.09399L24.9031 8.18963ZM24.1204 7.76671L24.0309 7.70158L23.9515 7.8107L24.0741 7.86724L24.1204 7.76671ZM24.6704 7.06889L24.5871 6.99593L24.5847 6.99877L24.6704 7.06889ZM39.3296 7.06889L39.2458 7.14132L39.3027 7.20708L39.3801 7.16742L39.3296 7.06889ZM41.9103 6.05389L41.9383 6.16099L42.0929 6.12051L42.0007 5.98998L41.9103 6.05389ZM22.0263 6.05389L21.9355 5.99049L21.9342 5.99246L22.0263 6.05389ZM21.5397 6.81514L21.6349 6.87174L21.6354 6.87094L21.5397 6.81514ZM20.3975 9.31037L20.2927 9.27458L20.2507 9.39763L20.3788 9.4195L20.3975 9.31037ZM28.1184 27.073V26.9623H28.0077V27.073H28.1184ZM28.1184 36.927H28.0077V37.0377H28.1184V36.927ZM40.9845 27.1153V23.4782H40.763V27.1153H40.9845ZM39.6469 22.3624H40.8738V22.141H39.6469V22.3624ZM40.9845 22.2517V19.693H40.763V22.2517H40.9845ZM53.1787 22.7231C53.5637 21.932 53.8426 21.0964 53.9714 20.2166L53.7523 20.1845C53.6272 21.0387 53.3561 21.8525 52.9796 22.6262L53.1787 22.7231ZM53.8899 20.0935C52.5902 19.7527 51.2481 19.5823 49.885 19.5823V19.8038C51.2296 19.8038 52.5528 19.9718 53.8337 20.3076L53.8899 20.0935ZM49.885 19.5823H41.7199V19.8038H49.885V19.5823ZM41.6092 19.693V23.1187H41.8306V19.693H41.6092ZM41.7199 23.2294H41.741V23.008H41.7199V23.2294ZM41.6628 23.197L44.2223 25.7557L44.3788 25.5991L41.8193 23.0404L41.6628 23.197ZM44.4113 25.6774V22.2517H44.1899V25.6774H44.4113ZM44.3006 22.3624H49.885V22.141H44.3006V22.3624ZM49.885 22.3624C50.9538 22.3624 52.0231 22.5091 53.0508 22.7816L53.1075 22.5676C52.0622 22.2904 50.9739 22.141 49.885 22.141V22.3624ZM30.5866 44.2495L28.006 41.6908L27.8501 41.8481L30.4307 44.4067L30.5866 44.2495ZM22.9732 36.927V40.543H23.1946V36.927H22.9732ZM23.0033 40.6189L23.3418 40.9783L23.503 40.8266L23.1645 40.4671L23.0033 40.6189ZM23.3441 40.9808L24.2114 41.8477L24.3679 41.6911L23.5007 40.8242L23.3441 40.9808ZM22.9845 41.8477L23.0057 41.8689L23.1622 41.7123L23.1411 41.6911L22.9845 41.8477ZM22.9732 41.7906V44.3281H23.1946V41.7906H22.9732ZM63.1107 32.0211C63.1107 27.7987 61.1898 24.2119 57.9863 21.9915L57.8602 22.1735C61.0026 24.3516 62.8893 27.8697 62.8893 32.0211H63.1107ZM57.9846 21.9904C57.7313 21.8216 57.4747 21.6505 57.2175 21.5005L57.1059 21.6918C57.3564 21.8379 57.6075 22.0051 57.8618 22.1747L57.9846 21.9904ZM57.2183 21.501C56.4291 21.0319 55.5967 20.6478 54.7422 20.3701L54.6737 20.5807C55.5115 20.8529 56.329 21.23 57.1051 21.6914L57.2183 21.501ZM54.5988 20.4568C54.4526 21.3126 54.1811 22.1277 53.8041 22.9233L54.0042 23.0181C54.3887 22.2066 54.6671 21.3722 54.8171 20.4941L54.5988 20.4568ZM53.8008 22.9309C53.6988 23.1961 53.5554 23.4422 53.4066 23.6973L53.5978 23.8089C53.7451 23.5564 53.898 23.295 54.0075 23.0104L53.8008 22.9309ZM53.406 23.6984C52.8823 24.6197 52.233 25.4572 51.479 26.19L51.6333 26.3488C52.4023 25.6015 53.0644 24.7473 53.5985 23.8078L53.406 23.6984ZM51.4778 26.1911L48.1356 29.5322L48.2922 29.6888L51.6344 26.3477L51.4778 26.1911ZM48.1356 29.6888L49.9548 31.5074L50.1114 31.3508L48.2922 29.5322L48.1356 29.6888ZM50.1114 31.5074L53.4536 28.1663L53.297 28.0097L49.9548 31.3508L50.1114 31.5074ZM53.4527 28.1672C54.4124 27.2291 55.2222 26.1637 55.9036 24.9929L55.7122 24.8816C55.0399 26.0368 54.242 27.086 53.2979 28.0088L53.4527 28.1672ZM55.9035 24.993C56.0513 24.7399 56.2012 24.483 56.33 24.2255L56.132 24.1265C56.0069 24.3765 55.8607 24.6271 55.7123 24.8814L55.9035 24.993ZM56.1659 24.2655C56.3994 24.4353 56.6273 24.6011 56.8338 24.7869L56.9819 24.6223C56.7654 24.4275 56.5279 24.255 56.2961 24.0864L56.1659 24.2655ZM56.8354 24.7883C58.8613 26.5421 60.0124 29.1117 60.0124 32.0423H60.2339C60.2339 29.052 59.0581 26.4197 56.9803 24.6209L56.8354 24.7883ZM60.0124 32.0423C60.0124 34.9734 58.8821 37.5428 56.8566 39.2962L57.0015 39.4636C59.0797 37.6646 60.2339 35.032 60.2339 32.0423H60.0124ZM56.8305 39.4305C57.2502 40.2485 57.586 41.1087 57.8379 41.9902L58.0508 41.9293C57.7951 41.0345 57.454 40.1608 57.0275 39.3294L56.8305 39.4305ZM58.0089 42.0497C61.1894 39.7665 63.1107 36.1806 63.1107 32.0211H62.8893C62.8893 36.1086 61.003 39.6278 57.8798 41.8698L58.0089 42.0497ZM36.8758 41.0132H40.5142V40.7917H36.8758V41.0132ZM41.6303 39.676V40.9025H41.8518V39.676H41.6303ZM41.741 41.0132H44.3006V40.7917H41.741V41.0132ZM22.3274 14.0894C22.3274 13.0197 22.4532 11.972 22.7256 10.9459L22.5115 10.8891C22.2339 11.9352 22.1059 13.0021 22.1059 14.0894H22.3274ZM22.667 10.8179C21.874 10.4323 21.0381 10.1752 20.1597 10.0467L20.1276 10.2658C20.9837 10.391 21.7978 10.6414 22.5701 11.017L22.667 10.8179ZM20.0365 10.1281C19.6957 11.4272 19.5252 12.7689 19.5252 14.0894H19.7467C19.7467 12.7877 19.9147 11.465 20.2507 10.1843L20.0365 10.1281ZM19.5252 14.0894V22.2517H19.7467V14.0894H19.5252ZM19.636 22.3624H23.0628V22.141H19.636V22.3624ZM23.1735 22.2517V22.2306H22.9521V22.2517H23.1735ZM23.141 22.3089L25.7006 19.7502L25.544 19.5936L22.9845 22.1523L23.141 22.3089ZM25.6223 19.5612H22.1955V19.7826H25.6223V19.5612ZM22.3062 19.6723L22.3274 14.0898L22.1059 14.0889L22.0848 19.6715L22.3062 19.6723ZM19.6571 41.6587H14.0515V41.8802H19.6571V41.6587ZM14.0515 41.6587C12.9815 41.6587 11.9342 41.5329 10.9089 41.2401L10.8481 41.453C11.8959 41.7522 12.9639 41.8802 14.0515 41.8802V41.6587ZM10.779 41.2981C10.3938 42.0895 10.1151 42.9461 9.98638 43.8042L10.2054 43.837C10.3304 43.0034 10.6017 42.1683 10.9781 41.395L10.779 41.2981ZM10.0678 43.9277C11.3674 44.2685 12.7095 44.4388 14.0515 44.4388V44.2174C12.7282 44.2174 11.405 44.0494 10.124 43.7135L10.0678 43.9277ZM14.0515 44.4388H22.2166V44.2174H14.0515V44.4388ZM22.3274 44.3281V40.9025H22.1059V44.3281H22.3274ZM22.2949 40.8242L19.7354 38.2655L19.5788 38.4221L22.1384 40.9808L22.2949 40.8242ZM44.2223 30.6192L45.0896 31.4862L45.2461 31.3296L44.3788 30.4626L44.2223 30.6192ZM45.2786 31.4079V31.3868H45.0571V31.4079H45.2786ZM45.2466 31.4646L47.0446 29.6461L46.8871 29.4904L45.0891 31.3089L45.2466 31.4646ZM47.0441 29.4899L41.8193 24.2669L41.6628 24.4235L46.8876 29.6465L47.0441 29.4899ZM41.8196 34.9115L44.3792 32.3317L44.222 32.1758L41.6624 34.7556L41.8196 34.9115ZM41.6303 49.9318C41.6303 51.0015 41.5044 52.0484 41.2115 53.0733L41.4244 53.1341C41.7238 52.0867 41.8518 51.019 41.8518 49.9318H41.6303ZM41.2696 53.2032C42.0614 53.5883 42.9184 53.867 43.798 53.9956L43.8301 53.7765C42.9751 53.6515 42.1399 53.3803 41.3664 53.0041L41.2696 53.2032ZM43.9211 53.9142C44.262 52.615 44.4324 51.2733 44.4324 49.9318H44.211C44.211 51.2546 44.043 52.5774 43.707 53.858L43.9211 53.9142ZM44.4324 49.9318V41.7694H44.211V49.9318H44.4324ZM44.3217 41.6587H40.8949V41.8802H44.3217V41.6587ZM40.7842 41.7694V41.7906H41.0056V41.7694H40.7842ZM40.8166 41.7123L38.2571 44.2709L38.4137 44.4275L40.9732 41.8689L40.8166 41.7123ZM38.3354 44.46H41.7622V44.2385H38.3354V44.46ZM41.6515 44.3488L41.6303 49.9314L41.8518 49.9322L41.8729 44.3497L41.6515 44.3488ZM26.7924 19.6144L24.2117 22.1731L24.3676 22.3303L26.9483 19.7717L26.7924 19.6144ZM34.8807 22.1731L32.3001 19.6144L32.1442 19.7717L34.7248 22.3303L34.8807 22.1731ZM30.5658 19.7713L31.4331 18.9044L31.2766 18.7478L30.4093 19.6147L30.5658 19.7713ZM31.4336 18.7482L29.6355 16.9297L29.4781 17.0853L31.2761 18.9039L31.4336 18.7482ZM35.8454 10.5645L32.5243 13.9056L32.6814 14.0617L36.0024 10.7206L35.8454 10.5645ZM32.7136 18.8472V18.8261H32.4921V18.8472H32.7136ZM32.6029 18.9368H36.1989V18.7153H32.6029V18.9368ZM36.2776 18.7482L34.5008 16.9508L34.3433 17.1065L36.1202 18.9039L36.2776 18.7482ZM34.5003 16.9503L33.8869 16.3371L33.7303 16.4937L34.3438 17.1069L34.5003 16.9503ZM33.8869 16.4937L34.5003 15.8805L34.3438 15.7239L33.7303 16.3371L33.8869 16.4937ZM34.5008 15.88L37.8219 12.5178L37.6643 12.3622L34.3433 15.7244L34.5008 15.88ZM37.8214 12.5183C38.5763 11.7636 39.4146 11.1142 40.3361 10.5908L40.2268 10.3983C39.2869 10.9321 38.4329 11.5939 37.6648 12.3617L37.8214 12.5183ZM40.3865 10.4595C40.1075 9.62268 39.6787 8.83024 39.1653 8.1245L38.9862 8.25476C39.4881 8.94465 39.9055 9.71702 40.1764 10.5296L40.3865 10.4595ZM39.0201 8.09393C37.848 8.77561 36.7825 9.60645 35.8448 10.5651L36.0031 10.72C36.9268 9.77554 37.9766 8.957 39.1314 8.28534L39.0201 8.09393ZM31.3548 45.0844H27.7165V45.3058H31.3548V45.0844ZM29.7988 47.4331L30.0949 47.708L30.2456 47.5457L29.9494 47.2708L29.7988 47.4331ZM26.1363 51.5029C25.3813 52.2576 24.5428 52.9072 23.6417 53.4309L23.753 53.6223C24.6712 53.0887 25.5249 52.4272 26.2929 51.6595L26.1363 51.5029ZM23.5923 53.5616C23.8714 54.3985 24.3001 55.1909 24.8136 55.8966L24.9926 55.7664C24.4907 55.0765 24.0733 54.3041 23.8024 53.4916L23.5923 53.5616ZM24.9603 55.9263C26.089 55.2451 27.1537 54.4149 28.0909 53.478L27.9343 53.3214C27.01 54.2454 25.9595 55.0646 24.8459 55.7367L24.9603 55.9263ZM47.0441 34.5312L47.6576 33.918L47.501 33.7614L46.8876 34.3746L47.0441 34.5312ZM51.4567 37.8723C52.2116 38.627 52.8612 39.465 53.3848 40.3862L53.5773 40.2768C53.0433 39.3372 52.3813 38.4835 51.6132 37.7157L51.4567 37.8723ZM53.5161 40.4365C54.3526 40.1578 55.1248 39.7503 55.8324 39.2144L55.6988 39.0379C55.0103 39.5593 54.2595 39.9554 53.4461 40.2265L53.5161 40.4365ZM55.8616 39.0711C55.2006 37.92 54.3695 36.855 53.4113 35.8971L53.2547 36.0537C54.2003 36.999 55.0191 38.0486 55.6696 39.1813L55.8616 39.0711ZM53.4114 35.8973L47.6577 30.1244L47.5009 30.2807L53.2546 36.0536L53.4114 35.8973ZM47.501 30.1243L45.6819 31.9428L45.8384 32.0994L47.6576 30.2809L47.501 30.1243ZM45.6848 31.94L45.3887 32.2149L45.5393 32.3772L45.8355 32.1023L45.6848 31.94ZM45.3857 32.2177L45.0684 32.5349L45.225 32.6915L45.5423 32.3743L45.3857 32.2177ZM45.036 32.6132V36.2292H45.2574V32.6132H45.036ZM45.224 36.3084L47.0432 34.5321L46.8885 34.3737L45.0694 36.15L45.224 36.3084ZM16.8924 29.5111L16.2789 30.1243L16.4355 30.2809L17.0489 29.6677L16.8924 29.5111ZM12.4798 26.17C11.7248 25.4152 11.075 24.577 10.5512 23.6763L10.3598 23.7876C10.8936 24.7054 11.5553 25.5588 12.3233 26.3266L12.4798 26.17ZM10.4205 23.6269C9.58261 23.9061 8.81106 24.335 8.10583 24.8477L8.23604 25.0268C8.92691 24.5245 9.67839 24.1076 10.4905 23.837L10.4205 23.6269ZM8.07569 24.9937C8.75691 26.1429 9.56653 27.208 10.5262 28.146L10.6809 27.9877C9.73678 27.0648 8.93876 26.0154 8.26617 24.8808L8.07569 24.9937ZM16.4566 33.918L18.2758 32.0994L18.1193 31.9428L16.3001 33.7614L16.4566 33.918ZM18.2772 32.0981L18.8695 31.4848L18.7102 31.331L18.1179 31.9442L18.2772 32.0981ZM18.9005 31.4079V27.8131H18.6791V31.4079H18.9005ZM18.7125 27.7339L16.8933 29.5101L17.048 29.6686L18.8672 27.8923L18.7125 27.7339ZM23.3418 23.0428L23.0033 23.4023L23.1645 23.5541L23.503 23.1946L23.3418 23.0428ZM23.0057 23.3999L22.1384 24.2669L22.2949 24.4235L23.1622 23.5565L23.0057 23.3999ZM22.3274 24.3452V23.1187H22.1059V24.3452H22.3274ZM19.7355 30.6191L27.1391 23.1969L26.9823 23.0405L19.5787 30.4627L19.7355 30.6191ZM27.0607 23.008H23.4224V23.2294H27.0607V23.008ZM29.0769 41.8481L31.6576 44.4067L31.8135 44.2495L29.2328 41.6908L29.0769 41.8481ZM33.3707 44.2498L32.5034 45.1168L32.66 45.2734L33.5273 44.4064L33.3707 44.2498ZM32.5817 45.3058H32.6029V45.0844H32.5817V45.3058ZM32.5241 45.2729L34.3222 47.0915L34.4796 46.9358L32.6816 45.1172L32.5241 45.2729ZM9.35888 43.6066C9.50545 42.7484 9.75628 41.9138 10.152 41.1434L9.95508 41.0422C9.54702 41.8365 9.29018 42.6936 9.14061 43.5693L9.35888 43.6066ZM10.1558 41.1354C10.2582 40.8897 10.4022 40.6425 10.5511 40.3873L10.3599 40.2757C10.2126 40.5281 10.0605 40.7884 9.95137 41.0502L10.1558 41.1354ZM10.5508 40.3878C11.0961 39.4654 11.7461 38.6269 12.501 37.8723L12.3444 37.7157C11.5763 38.4835 10.9149 39.3368 10.3602 40.2752L10.5508 40.3878ZM12.5007 37.8725L15.843 34.5526L15.6869 34.3955L12.3447 37.7154L12.5007 37.8725ZM15.8432 34.3958L14.024 32.5772L13.8675 32.7338L15.6867 34.5524L15.8432 34.3958ZM13.8675 32.5772L10.5253 35.9183L10.6818 36.0749L14.024 32.7338L13.8675 32.5772ZM10.5262 35.9174C9.56653 36.8554 8.75691 37.9206 8.07569 39.0697L8.26617 39.1826C8.93876 38.048 9.73678 36.9986 10.6809 36.0758L10.5262 35.9174ZM8.07531 39.0704C7.92488 39.3282 7.79633 39.5853 7.6685 39.8622L7.86954 39.955C7.99555 39.6821 8.12084 39.4317 8.26656 39.182L8.07531 39.0704ZM7.83412 39.819C7.60444 39.6521 7.37423 39.4638 7.14106 39.2731L7.00087 39.4445C7.23307 39.6344 7.46823 39.8268 7.70392 39.9981L7.83412 39.819ZM7.14343 39.2751C5.11784 37.5216 3.98755 34.9522 3.98755 32.0423H3.76612C3.76612 35.011 4.92037 37.6435 6.9985 39.4425L7.14343 39.2751ZM3.98755 32.0423C3.98755 29.0897 5.1181 26.5208 7.14293 24.7888L6.999 24.6205C4.92011 26.3987 3.76612 29.0317 3.76612 32.0423H3.98755ZM7.16947 24.6541C6.74984 23.8361 6.414 22.9759 6.16206 22.0944L5.94916 22.1553C6.2049 23.0501 6.54597 23.9238 6.97246 24.7552L7.16947 24.6541ZM5.99214 22.0341C2.78869 24.2758 0.889286 27.9049 0.889286 32.0634H1.11071C1.11071 27.975 2.97658 24.4145 6.11909 22.2155L5.99214 22.0341ZM0.889286 32.0634C0.889286 36.2647 2.81017 39.8725 6.01329 42.1139L6.14024 41.9325C2.9974 39.7332 1.11071 36.1937 1.11071 32.0634H0.889286ZM6.01537 42.1153C6.26867 42.2841 6.5253 42.4552 6.78251 42.6052L6.89405 42.4139C6.64358 42.2678 6.39254 42.1006 6.13816 41.9311L6.01537 42.1153ZM6.78547 42.6069C7.52948 43.0106 8.33914 43.3941 9.21398 43.6928L9.28551 43.4832C8.42578 43.1897 7.6278 42.812 6.89109 42.4122L6.78547 42.6069ZM40.9608 10.1325C41.0648 10.4028 41.1479 10.6727 41.2101 10.9424L41.4259 10.8926C41.3612 10.6124 41.275 10.3325 41.1675 10.053L40.9608 10.1325ZM41.211 10.9459C41.4837 11.9734 41.6301 13.0204 41.6092 14.0872L41.8306 14.0915C41.852 13.0014 41.7022 11.9338 41.425 10.8891L41.211 10.9459ZM41.6092 14.0894V18.8261H41.8306V14.0894H41.6092ZM41.7199 18.9368H44.3006V18.7153H41.7199V18.9368ZM44.4113 18.8261V14.0894H44.1899V18.8261H44.4113ZM44.4113 14.0894C44.4113 12.7478 44.2409 11.4062 43.9 10.107L43.6858 10.1632C44.0218 11.4438 44.1899 12.7665 44.1899 14.0894H44.4113ZM43.9008 10.1102C43.8361 9.83018 43.7273 9.52457 43.6449 9.25665L43.4332 9.32179C43.52 9.60366 43.6227 9.89014 43.685 10.16L43.9008 10.1102ZM43.5547 9.39882C43.8515 9.35644 44.1438 9.31475 44.4354 9.29392L44.4196 9.07306C44.1189 9.09453 43.8189 9.13742 43.5234 9.17962L43.5547 9.39882ZM44.4353 9.29393C47.0877 9.10603 49.7219 10.1076 51.7736 12.1795L51.9309 12.0237C49.8366 9.90874 47.1402 8.88032 44.4197 9.07305L44.4353 9.29393ZM51.7736 12.1795C53.8267 14.2529 54.87 16.8869 54.6821 19.5372L54.903 19.5528C55.0959 16.8321 54.0238 14.1373 51.9309 12.0237L51.7736 12.1795ZM54.7598 19.6508C55.6397 19.923 56.4791 20.3004 57.2996 20.7421L57.4046 20.5471C56.5751 20.1006 55.7223 19.7168 54.8253 19.4393L54.7598 19.6508ZM57.4611 20.664C58.1445 16.821 56.9264 12.9151 53.9824 9.97218L53.8259 10.1288C56.7202 13.0221 57.9135 16.8556 57.2431 20.6252L57.4611 20.664ZM53.9824 9.97218C51.0384 7.02922 47.1312 5.81149 43.287 6.49468L43.3257 6.71269C47.0967 6.04253 50.9315 7.23544 53.8259 10.1288L53.9824 9.97218ZM43.2907 6.49408C42.9905 6.53695 42.6682 6.60134 42.3664 6.68754L42.4272 6.90045C42.7177 6.81749 43.0299 6.755 43.322 6.71329L43.2907 6.49408ZM42.3681 6.68706C41.4945 6.92135 40.6202 7.24104 39.8089 7.64653L39.9079 7.8446C40.7043 7.44655 41.5645 7.13185 42.4255 6.90093L42.3681 6.68706ZM39.7671 7.80819C40.2696 8.54068 40.6671 9.31463 40.9599 10.1302L41.1683 10.0554C40.8689 9.22152 40.4626 8.43067 39.9497 7.68294L39.7671 7.80819ZM22.9757 53.8886C22.8717 53.6184 22.7887 53.3484 22.7264 53.0788L22.5107 53.1286C22.5754 53.4088 22.6615 53.6886 22.7691 53.9681L22.9757 53.8886ZM22.7256 53.0753C22.4529 52.0477 22.3064 51.0007 22.3273 49.934L22.106 49.9296C22.0846 51.0197 22.2343 52.0874 22.5115 53.1321L22.7256 53.0753ZM22.3274 49.9318V45.2162H22.1059V49.9318H22.3274ZM22.2166 45.1055H19.6571V45.3269H22.2166V45.1055ZM19.5464 45.2162V49.9318H19.7678V45.2162H19.5464ZM19.5464 49.9318C19.5464 51.2733 19.7168 52.615 20.0577 53.9142L20.2719 53.858C19.9359 52.5774 19.7678 51.2546 19.7678 49.9318H19.5464ZM20.0565 53.9093C20.1213 54.2114 20.2312 54.4994 20.3128 54.7645L20.5244 54.6994C20.4368 54.4147 20.3352 54.1528 20.273 53.8629L20.0565 53.9093ZM20.403 54.6223C20.1062 54.6647 19.8139 54.7064 19.5223 54.7272L19.5381 54.9481C19.8388 54.9266 20.1388 54.8837 20.4343 54.8415L20.403 54.6223ZM19.5224 54.7272C16.8701 54.9151 14.2356 53.9136 12.1625 51.8412L12.006 51.9978C14.1213 54.1123 16.8174 55.1408 19.538 54.9481L19.5224 54.7272ZM12.1625 51.8412C10.1101 49.7894 9.06651 47.1345 9.25441 44.484L9.03354 44.4683C8.84068 47.1888 9.91246 49.905 12.006 51.9978L12.1625 51.8412ZM9.17898 44.3711C8.29616 44.0769 7.45669 43.7201 6.63882 43.2589L6.53006 43.4518C7.36214 43.921 8.21493 44.2832 9.10898 44.5812L9.17898 44.3711ZM6.47533 43.3366C5.81341 47.1787 7.00985 51.0845 9.95414 54.0278L10.1107 53.8712C7.21669 50.9782 6.04398 47.1446 6.69355 43.3742L6.47533 43.3366ZM9.95414 54.0278C12.8981 56.9708 16.8263 58.1884 20.649 57.5266L20.6113 57.3084C16.8611 57.9576 13.005 56.7645 10.1107 53.8712L9.95414 54.0278ZM20.6519 57.526C20.9698 57.4625 21.2695 57.3983 21.5702 57.3125L21.5093 57.0995C21.2177 57.1829 20.9251 57.2456 20.6085 57.3089L20.6519 57.526ZM21.566 57.3136C22.4419 57.1 23.2958 56.7798 24.1065 56.3746L24.0075 56.1765C23.2105 56.5749 22.3722 56.8891 21.5135 57.0984L21.566 57.3136ZM24.1495 56.2148C23.6673 55.4812 23.2695 54.7066 22.9766 53.891L22.7682 53.9658C23.0676 54.7995 23.4736 55.5897 23.9645 56.3364L24.1495 56.2148ZM57.2693 42.4199C57.0558 41.5448 56.7356 40.67 56.33 39.8591L56.132 39.9581C56.5301 40.7542 56.8446 41.6134 57.0542 42.4723L57.2693 42.4199ZM56.1671 39.8181C55.4557 40.3201 54.703 40.7172 53.8879 41.0097L53.9627 41.2181C54.7975 40.9186 55.5678 40.512 56.2948 39.999L56.1671 39.8181ZM53.8855 41.0106C53.6154 41.1145 53.3459 41.1973 53.056 41.2594L53.1023 41.4759C53.4047 41.4112 53.6852 41.3248 53.965 41.2173L53.8855 41.0106ZM53.0508 41.2606C52.0228 41.5333 50.9755 41.6797 49.9083 41.6587L49.904 41.8801C50.9945 41.9015 52.0625 41.7518 53.1075 41.4747L53.0508 41.2606ZM49.9062 41.6587H45.189V41.8802H49.9062V41.6587ZM45.0783 41.7694V44.3281H45.2997V41.7694H45.0783ZM45.189 44.4388H49.9062V44.2174H45.189V44.4388ZM49.9062 44.4388C51.2481 44.4388 52.5903 44.2685 53.8692 43.9276L53.8121 43.7136C52.5526 44.0494 51.2296 44.2174 49.9062 44.2174V44.4388ZM53.8639 43.9289C54.1662 43.8641 54.4467 43.7778 54.7265 43.6702L54.6471 43.4635C54.3769 43.5674 54.1074 43.6502 53.8175 43.7123L53.8639 43.9289ZM54.5785 43.59C54.6401 43.8773 54.6609 44.1656 54.6821 44.4629L54.903 44.4471C54.8819 44.1522 54.8604 43.8485 54.795 43.5436L54.5785 43.59ZM54.6821 44.4628C54.8701 47.1141 53.8682 49.7477 51.7951 51.8201L51.9517 51.9767C54.0669 49.8621 55.0958 47.1669 54.903 44.4471L54.6821 44.4628ZM51.7951 51.8201C49.7225 53.892 47.109 54.8731 44.4344 54.706L44.4206 54.927C47.1612 55.0982 49.836 54.0916 51.9517 51.9767L51.7951 51.8201ZM44.3215 54.7845C44.0491 55.6853 43.6718 56.5445 43.2106 57.3408L43.4022 57.4518C43.8717 56.6411 44.2559 55.7662 44.5335 54.8486L44.3215 54.7845ZM43.287 57.5053C47.1315 58.1886 51.0175 56.9706 53.9824 54.0067L53.8259 53.8501C50.9102 56.7648 47.0964 57.9574 43.3257 57.2873L43.287 57.5053ZM53.9824 54.0067C56.9476 51.0425 58.1445 47.1577 57.4611 43.3149L57.2431 43.3536C57.9135 47.1234 56.7412 50.9357 53.8259 53.8501L53.9824 54.0067ZM57.4603 43.311L57.27 42.4229L57.0535 42.4693L57.2438 43.3574L57.4603 43.311ZM6.66789 21.6249C6.90226 22.4981 7.22206 23.3722 7.6277 24.1832L7.82573 24.0842C7.42755 23.2881 7.11275 22.4282 6.88175 21.5675L6.66789 21.6249ZM7.79055 24.2242C8.50199 23.7221 9.25465 23.3251 10.0698 23.0326L9.99502 22.8242C9.16022 23.1237 8.38986 23.5303 7.66288 24.0432L7.79055 24.2242ZM10.0721 23.0317C10.3426 22.9277 10.614 22.8442 10.9089 22.7599L10.8481 22.547C10.5508 22.6319 10.2722 22.7176 9.99268 22.825L10.0721 23.0317ZM10.9069 22.7605C11.9334 22.4883 12.9815 22.3624 14.0515 22.3624V22.141C12.9639 22.141 11.8967 22.2689 10.8502 22.5465L10.9069 22.7605ZM14.0515 22.3624H18.7687V22.141H14.0515V22.3624ZM18.8794 22.2517V19.6719H18.658V22.2517H18.8794ZM18.7687 19.5612H14.0515V19.7826H18.7687V19.5612ZM14.0515 19.5612C12.7094 19.5612 11.3884 19.7316 10.0889 20.0723L10.1451 20.2865C11.4263 19.9506 12.7284 19.7826 14.0515 19.7826V19.5612ZM10.0938 20.0711C9.79437 20.1353 9.50163 20.2461 9.21934 20.3267L9.28015 20.5396C9.59014 20.4511 9.84739 20.3504 10.1402 20.2877L10.0938 20.0711ZM9.358 20.4099C9.29646 20.1229 9.27566 19.8346 9.25445 19.5165L9.03351 19.5312C9.0546 19.8476 9.0761 20.1513 9.14149 20.4564L9.358 20.4099ZM9.25441 19.516C9.06652 16.8656 10.0888 14.2528 12.1629 12.1584L12.0056 12.0026C9.8914 14.1374 8.84067 16.8111 9.03354 19.5317L9.25441 19.516ZM12.1629 12.1584C14.2352 10.0659 16.8484 9.10573 19.5021 9.27284L19.516 9.05185C16.7968 8.88062 14.1217 9.86586 12.0056 12.0026L12.1629 12.1584ZM19.615 9.19439C19.8875 8.29356 20.2645 7.43512 20.746 6.63988L20.5566 6.52519C20.0651 7.33704 19.6806 8.21258 19.4031 9.1303L19.615 9.19439ZM20.6695 6.47333C16.8264 5.83302 12.9195 7.02899 9.95414 9.99332L10.1107 10.1499C13.0259 7.23568 16.8611 6.06329 20.6331 6.69175L20.6695 6.47333ZM9.95414 9.99332C6.98859 12.9579 5.81343 16.8426 6.47533 20.6846L6.69355 20.647C6.04395 16.8764 7.19565 13.064 10.1107 10.1499L9.95414 9.99332ZM6.47588 20.6875C6.50769 20.8465 6.5395 21.0001 6.57121 21.1534C6.60295 21.3068 6.63461 21.4597 6.66626 21.6179L6.88338 21.5745C6.85157 21.4154 6.81977 21.2618 6.78805 21.1085C6.75631 20.9552 6.72465 20.8022 6.693 20.644L6.47588 20.6875ZM41.0894 53.8279C40.8163 53.7019 40.5659 53.5766 40.3161 53.431L40.2045 53.6222C40.4624 53.7726 40.7196 53.9011 40.9966 54.0289L41.0894 53.8279ZM40.315 53.4303C39.3934 52.9069 38.5552 52.2576 37.8002 51.5029L37.6437 51.6595C38.4117 52.4273 39.2657 53.089 40.2056 53.6229L40.315 53.4303ZM37.8005 51.5031L34.4794 48.1621L34.3224 48.3182L37.6434 51.6592L37.8005 51.5031ZM34.3226 48.1618L32.5034 49.9804L32.66 50.137L34.4792 48.3184L34.3226 48.1618ZM32.5034 50.137L35.8456 53.478L36.0022 53.3214L32.66 49.9804L32.5034 50.137ZM35.8448 53.4771C36.7831 54.4365 37.8489 55.246 39.0201 55.9272L39.1314 55.7358C37.9758 55.0637 36.9262 54.2661 36.0031 53.3223L35.8448 53.4771ZM39.02 55.9272C39.2731 56.0748 39.5315 56.2255 39.812 56.355L39.9048 56.1539C39.6354 56.0296 39.386 55.8843 39.1315 55.7359L39.02 55.9272ZM39.7689 56.1893C39.6021 56.4185 39.4142 56.6481 39.2261 56.857L39.3907 57.0052C39.5834 56.7911 39.7762 56.5556 39.9479 56.3196L39.7689 56.1893ZM39.2247 56.8586C37.4706 58.8835 34.9003 60.0134 31.9894 60.0134V60.2349C34.9591 60.2349 37.5925 59.081 39.3921 57.0036L39.2247 56.8586ZM31.9894 60.0134C29.0359 60.0134 26.4658 58.8833 24.7118 56.8586L24.5444 57.0036C26.3442 59.0812 28.9777 60.2349 31.9894 60.2349V60.0134ZM24.5776 56.8326C23.7588 57.2523 22.9196 57.5878 22.0177 57.8395L22.0772 58.0528C22.9944 57.7969 23.8475 57.4557 24.6786 57.0296L24.5776 56.8326ZM21.9567 58.0096C24.199 61.2118 27.8081 63.1107 31.9683 63.1107V62.8893C27.8786 62.8893 24.338 61.0242 22.1381 57.8826L21.9567 58.0096ZM31.9683 63.1107C36.171 63.1107 39.7587 61.1904 42.0008 58.0099L41.8198 57.8823C39.6197 61.0033 36.0998 62.8893 31.9683 62.8893V63.1107ZM42.0024 58.0075C42.1712 57.7543 42.3424 57.4978 42.4924 57.2407L42.3012 57.1291C42.1551 57.3794 41.9877 57.6304 41.8182 57.8847L42.0024 58.0075ZM42.4919 57.2415C42.9608 56.4532 43.3666 55.5997 43.6446 54.7231L43.4335 54.6562C43.1616 55.5136 42.7636 56.3517 42.3016 57.1283L42.4919 57.2415ZM43.5555 54.5801C42.72 54.4549 41.8843 54.2043 41.0904 53.8283L40.9956 54.0284C41.8093 54.4138 42.6659 54.6707 43.5226 54.7991L43.5555 54.5801ZM22.1384 29.1304L19.5788 31.6891L19.7354 31.8457L22.2949 29.287L22.1384 29.1304ZM19.7344 33.401L18.8671 32.5551L18.7125 32.7136L19.5798 33.5595L19.7344 33.401ZM18.8681 32.5561L18.847 32.5349L18.6904 32.6915L18.7116 32.7127L18.8681 32.5561ZM18.658 32.6132V32.6344H18.8794V32.6132H18.658ZM18.6904 32.5561L16.8924 34.3535L17.0489 34.5101L18.847 32.7127L18.6904 32.5561ZM16.8919 34.5096L18.6899 36.3282L18.8474 36.1725L17.0494 34.3539L16.8919 34.5096ZM18.6914 36.3296L19.5798 37.1966L19.7344 37.0381L18.846 36.1711L18.6914 36.3296ZM19.5788 37.1956L22.1384 39.7543L22.2949 39.5977L19.7354 37.039L19.5788 37.1956ZM22.8472 10.1933C23.1202 10.3193 23.3706 10.4445 23.6204 10.5902L23.732 10.3989C23.4741 10.2485 23.2169 10.12 22.9399 9.99224L22.8472 10.1933ZM23.6215 10.5908C24.5431 11.1143 25.381 11.7634 26.1141 12.5172L26.2728 12.3628C25.5252 11.5941 24.6708 10.9321 23.7309 10.3983L23.6215 10.5908ZM26.1152 12.5183L29.4574 15.8593L29.6139 15.7027L26.2717 12.3617L26.1152 12.5183ZM29.6139 15.8593L31.4331 14.0408L31.2766 13.8842L29.4574 15.7027L29.6139 15.8593ZM31.4333 13.8844L28.1123 10.5434L27.9553 10.6995L31.2763 14.0405L31.4333 13.8844ZM28.1129 10.544C27.1746 9.5847 26.1091 8.77536 24.9595 8.09438L24.8467 8.28489C25.9817 8.95725 27.0314 9.75499 27.9546 10.6988L28.1129 10.544ZM24.9589 8.09399C24.7057 7.94636 24.4474 7.79563 24.1668 7.66618L24.0741 7.86724C24.3435 7.99154 24.5928 8.13686 24.8473 8.28527L24.9589 8.09399ZM24.21 7.83184C24.377 7.60224 24.5653 7.37211 24.7561 7.13902L24.5847 6.99877C24.3948 7.23089 24.2023 7.46597 24.0309 7.70158L24.21 7.83184ZM24.7537 7.14181C26.5083 5.13728 29.079 3.98657 31.9894 3.98657V3.76514C29.0192 3.76514 26.3863 4.94048 24.5871 6.99597L24.7537 7.14181ZM31.9894 3.98657C34.9425 3.98657 37.5128 5.13754 39.2458 7.14132L39.4133 6.99647C37.6349 4.94022 35.0015 3.76514 31.9894 3.76514V3.98657ZM39.3801 7.16742C40.1999 6.74712 41.0596 6.39105 41.9383 6.16099L41.8822 5.94678C40.9841 6.18193 40.1092 6.54483 39.2791 6.97037L39.3801 7.16742ZM42.0007 5.98998C39.7373 2.78824 36.1285 0.889286 31.9683 0.889286V1.11071C36.0578 1.11071 39.5987 2.97575 41.8199 6.1178L42.0007 5.98998ZM31.9683 0.889286C27.7445 0.889286 24.1566 2.80946 21.9355 5.99051L22.117 6.11727C24.2958 2.99681 27.8153 1.11071 31.9683 1.11071V0.889286ZM21.9342 5.99246C21.7653 6.24567 21.5942 6.50222 21.4441 6.75934L21.6354 6.87094C21.7815 6.62056 21.9488 6.36961 22.1184 6.11532L21.9342 5.99246ZM21.4446 6.75855C20.9749 7.54817 20.5911 8.40109 20.2927 9.27458L20.5022 9.34616C20.7962 8.48568 21.1738 7.64691 21.6349 6.87174L21.4446 6.75855ZM20.3788 9.4195C21.2351 9.56564 22.0511 9.83729 22.8484 10.1938L22.9387 9.9917C22.1284 9.62928 21.2944 9.35114 20.4161 9.20123L20.3788 9.4195ZM31.1433 26.9623H28.1184V27.1837H31.1433V26.9623ZM28.0077 27.073V36.927H28.2291V27.073H28.0077ZM28.1184 37.0377H31.1433V36.8163H28.1184V37.0377ZM31.1433 37.0377C32.555 37.0377 33.7538 36.5524 34.5996 35.6743C35.4451 34.7964 35.9289 33.5354 35.9289 32H35.7074C35.7074 33.4885 35.2393 34.691 34.4401 35.5207C33.6413 36.3501 32.5027 36.8163 31.1433 36.8163V37.0377ZM35.9289 32C35.9289 30.4646 35.4451 29.2036 34.5996 28.3257C33.7538 27.4476 32.555 26.9623 31.1433 26.9623V27.1837C32.5027 27.1837 33.6413 27.6499 34.4401 28.4793C35.2393 29.309 35.7074 30.5115 35.7074 32H35.9289ZM40.8738 19.5823H33.449V19.8038H40.8738V19.5823ZM33.3707 19.7713L40.7955 27.1936L40.952 27.037L33.5273 19.6147L33.3707 19.7713ZM40.952 23.3999L39.7251 22.1734L39.5686 22.33L40.7955 23.5565L40.952 23.3999ZM23.0839 44.4388H30.5087V44.2174H23.0839V44.4388ZM28.0063 41.6911L23.1622 36.8487L23.0057 37.0053L27.8497 41.8477L28.0063 41.6911ZM24.2897 41.6587H23.0628V41.8802H24.2897V41.6587ZM44.4113 40.9025V33.4802H44.1899V40.9025H44.4113ZM44.2223 33.4019L36.7975 40.8242L36.9541 40.9808L44.3788 33.5585L44.2223 33.4019ZM40.5924 40.9808L41.8193 39.7543L41.6628 39.5977L40.4359 40.8242L40.5924 40.9808ZM19.5464 38.3438V41.7694H19.7678V38.3438H19.5464ZM44.4113 32.2537V30.5409H44.1899V32.2537H44.4113ZM41.6303 24.3452V34.8336H41.8518V24.3452H41.6303ZM29.4785 16.9292L26.7921 19.6147L26.9486 19.7713L29.6351 17.0858L29.4785 16.9292ZM24.2897 22.3624H34.8028V22.141H24.2897V22.3624ZM32.2221 19.5823H30.4875V19.8038H32.2221V19.5823ZM32.5246 13.9053L30.092 16.3371L30.2485 16.4937L32.6811 14.0619L32.5246 13.9053ZM30.092 16.4937L32.5246 18.9255L32.6811 18.7689L30.2485 16.3371L30.092 16.4937ZM28.0909 53.478L33.8657 47.7052L33.7092 47.5486L27.9343 53.3214L28.0909 53.478ZM33.8657 47.5486L31.4331 45.1168L31.2766 45.2734L33.7092 47.7052L33.8657 47.5486ZM27.6382 45.2734L29.7958 47.4303L29.9524 47.2737L27.7947 45.1168L27.6382 45.2734ZM30.092 47.5486L26.1363 51.5029L26.2929 51.6595L30.2485 47.7052L30.092 47.5486ZM47.501 33.918L51.4567 37.8723L51.6132 37.7157L47.6576 33.7614L47.501 33.918ZM16.4355 30.1243L12.4798 26.17L12.3233 26.3266L16.2789 30.2809L16.4355 30.1243ZM10.5253 28.1451L16.3001 33.918L16.4566 33.7614L10.6818 27.9885L10.5253 28.1451ZM22.2166 23.008H19.6571V23.2294H22.2166V23.008ZM19.5464 23.1187V30.5409H19.7678V23.1187H19.5464ZM34.4792 47.0919L39.7251 41.8477L39.5686 41.6911L34.3226 46.9353L34.4792 47.0919ZM39.6469 41.6587H29.1549V41.8802H39.6469V41.6587ZM31.7356 44.4388H33.449V44.2174H31.7356V44.4388ZM22.3274 39.676V29.2087H22.1059V39.676H22.3274ZM19.5464 31.7674V33.4802H19.7678V31.7674H19.5464Z" fill="black" mask="url(#path-1-outside-1_3121_9)"/>
</svg>
