<?xml version="1.0" encoding="utf-8"?>
<!-- Generator: Adobe Illustrator 19.0.0, SVG Export Plug-In . SVG Version: 6.00 Build 0)  -->
<svg version="1.1" id="Layer_1" xmlns="http://www.w3.org/2000/svg" xmlns:xlink="http://www.w3.org/1999/xlink" x="0px" y="0px"
	 viewBox="0 0 175.1 185.4" style="enable-background:new 0 0 175.1 185.4;" xml:space="preserve">
<style type="text/css">
	.st0{fill:#F68926;}
	.st1{fill:#FFFFFF;}
	.st2{fill:#85C441;}
	.st3{fill:none;}
	.st4{fill:#F9A11E;}
</style>
<g>
	<path d="M143.3,29.2c-8-7.9-17.9-11.9-29.7-11.9c-11.8,0-21.7,3.9-29.7,11.9c-1.6,1.6-2.9,3.3-4.2,5c-1.2-1.7-2.5-3.4-4-4.8
		c-7.4-7.1-17.4-10.7-30-10.7H12.9v12.6h7.4v60.3c0,2.7,0.6,4.7,1.8,5.9c1.2,1.2,3.2,1.8,5.9,1.8h17.7c12.6,0,22.5-3.6,30-10.8
		c1.6-1.5,2.9-3.2,4.2-5c1.2,1.7,2.5,3.4,4,5c8,8.1,17.9,12.2,29.7,12.2c11.8,0,21.7-4.1,29.7-12.2c8-8.1,12-18.2,12-30
		C155.3,46.9,151.3,37.1,143.3,29.2z M64.3,79.5c-4.7,4.8-11.2,7.2-19.4,7.2h-7.3c-1.7,0-2.5-0.8-2.5-2.5V31.3h9.8
		c8.1,0,14.5,2.4,19.3,7.2c4.7,4.8,7.1,11.6,7.1,20.4C71.4,67.9,69,74.7,64.3,79.5z"/>
	<g>
		<path class="st0" d="M133.8,57.5c0,10.8-8.7,19.5-19.5,19.5c-10.8,0-19.5-8.7-19.5-19.5c0-10.8,8.7-19.5,19.5-19.5
			C125,37.9,133.8,46.7,133.8,57.5z"/>
		<path class="st1" d="M114.2,33.5c0,0,5.5,7.1,1.9,10.6c0,0,0.4,1.8,1.6,0.9c1.2-0.9,1.9-4.5,0.8-7.1c-0.8-1.9-2.7-6-2.7-6
			L114.2,33.5z"/>
		<path class="st2" d="M104,36.4c1.9,0.9,7.3,0.3,9.3-3.1c0,0-2.7-5.2-9.8-2.9c-4.6,1.5-7.1,6.7-7.1,6.7S98.7,34.1,104,36.4z"/>
		<path class="st1" d="M118.4,37.9l0.5-1.3c0,0,0.9,0.5,1,0.7c0.2,0.3-1.1,2.5-1.1,2.5L118.4,37.9"/>
	</g>
	<g>
		<polygon class="st3" points="119.7,112.8 112.2,129.1 112.2,129.1 119.7,112.8 		"/>
		<polygon class="st4" points="71.1,159.4 71.1,159.4 77.3,145.7 		"/>
		<path class="st3" d="M29.8,112.6h-7.3V137h7.3c7.9,0,12.8-5.3,12.8-12.1v-0.1C42.6,118.1,37.7,112.6,29.8,112.6z"/>
		<path d="M29.8,110.7h-9.4v28.2h9.4c8.9,0,15-6.2,15-14.1v-0.1C44.8,116.8,38.7,110.7,29.8,110.7z M42.6,124.9
			c0,6.7-4.9,12.1-12.8,12.1h-7.3v-24.3h7.3C37.7,112.6,42.6,118.1,42.6,124.9L42.6,124.9z"/>
		<rect x="48.2" y="110.7" width="2.1" height="28.2"/>
		<path d="M67.9,139.4c4.6,0,8.5-2,11.1-4.2v-10.9H67.5v1.9h9.4v8.1c-2.1,1.7-5.4,3.2-9,3.2c-7.5,0-12.1-5.5-12.1-12.7v-0.1
			c0-6.8,4.8-12.6,11.6-12.6c4.3,0,6.9,1.5,9.1,3.4l1.4-1.6c-2.8-2.3-5.7-3.7-10.3-3.7c-8.4,0-14,7-14,14.6v0.1
			C53.7,132.8,59,139.4,67.9,139.4z"/>
		<rect x="82.8" y="110.7" width="2.1" height="28.2"/>
		<polygon points="97.3,138.9 99.4,138.9 99.4,112.6 109.2,112.6 109.2,110.7 87.5,110.7 87.5,112.6 97.3,112.6 		"/>
		<polygon points="107.7,138.9 111.3,131 111.3,131 112.2,129.1 112.2,129.1 119.7,112.8 119.7,112.8 119.7,112.7 128.2,131.6 
			131.6,138.9 133.8,138.9 120.7,110.5 118.7,110.5 105.6,138.9 		"/>
		<polygon points="137.9,137 137.9,110.7 135.8,110.7 135.8,138.9 154.4,138.9 154.4,137 		"/>
		<path class="st0" d="M31.9,143.6c-7.2,0-11.9,5.8-11.9,12.2v0.1c0,6.5,4.7,12.2,11.9,12.2c7.2,0,11.9-5.8,11.9-12.3c0,0,0,0,0,0
			C43.8,149.3,39.1,143.6,31.9,143.6z M42,155.9c0,5.8-4.2,10.6-10.1,10.6c-5.9,0-10.1-4.8-10.1-10.7v0c0-5.9,4.2-10.6,10.1-10.6
			C37.7,145.1,42,149.9,42,155.9L42,155.9z"/>
		<path class="st0" d="M57.9,157.5c4-0.6,6.9-2.8,6.9-6.8v-0.1c0-1.7-0.7-3.3-1.8-4.4c-1.4-1.4-3.8-2.3-6.7-2.3h-10v23.7h1.8v-9.8
			h7.7h0.1l7.6,9.8h2l0.1-0.2L57.9,157.5z M48.2,156.2v-10.7h8.1c4.3,0,6.8,2,6.8,5.2v0.1c0,3.4-3,5.4-6.9,5.4H48.2z"/>
		<polygon class="st0" points="87.3,167.7 89.2,167.7 78.2,143.8 76.5,143.8 65.6,167.5 65.7,167.7 67.3,167.7 70.3,161 70.4,161 
			71.1,159.4 71.1,159.4 77.3,145.7 84.3,161 84.3,161 		"/>
		<polygon class="st4" points="65.5,167.7 65.7,167.7 65.6,167.5 		"/>
		<polygon class="st0" points="108.9,164.6 92.5,144 90.9,144 90.9,167.7 92.6,167.7 92.6,146.6 109.2,167.7 110.6,167.7 110.6,144 
			108.9,144 		"/>
		<path class="st0" d="M124.8,157h7.9v6.8c-1.7,1.4-4.5,2.7-7.6,2.7c-6.3,0-10.2-4.6-10.2-10.7v0c0-5.7,4-10.6,9.8-10.6
			c3.6,0,5.8,1.2,7.6,2.8l1.2-1.3c-2.4-2-4.8-3.1-8.7-3.1c-7.1,0-11.7,5.8-11.7,12.2v0.1c0,6.7,4.4,12.2,11.9,12.2
			c3.8,0,7.2-1.6,9.3-3.6v-9.1h-9.6V157z"/>
		<polygon class="st0" points="139.2,156.5 152.7,156.5 152.7,154.9 139.2,154.9 139.2,145.6 154.3,145.6 154.3,144 137.4,144 
			137.4,167.7 154.4,167.7 154.4,166 139.2,166 		"/>
	</g>
</g>
</svg>
